<?xml version="1.0" encoding="utf-8" standalone="no"?>
<!DOCTYPE svg PUBLIC "-//W3C//DTD SVG 1.1//EN"
  "http://www.w3.org/Graphics/SVG/1.1/DTD/svg11.dtd">
<svg xmlns:xlink="http://www.w3.org/1999/xlink" width="3455.681086pt" height="648pt" viewBox="0 0 3455.681086 648" xmlns="http://www.w3.org/2000/svg" version="1.1">
 <metadata>
  <rdf:RDF xmlns:dc="http://purl.org/dc/elements/1.1/" xmlns:cc="http://creativecommons.org/ns#" xmlns:rdf="http://www.w3.org/1999/02/22-rdf-syntax-ns#">
   <cc:Work>
    <dc:type rdf:resource="http://purl.org/dc/dcmitype/StillImage"/>
    <dc:date>2025-07-24T14:17:47.081272</dc:date>
    <dc:format>image/svg+xml</dc:format>
    <dc:creator>
     <cc:Agent>
      <dc:title>Matplotlib v3.6.3, https://matplotlib.org/</dc:title>
     </cc:Agent>
    </dc:creator>
   </cc:Work>
  </rdf:RDF>
 </metadata>
 <defs>
  <style type="text/css">*{stroke-linejoin: round; stroke-linecap: butt}</style>
 </defs>
 <g id="figure_1">
  <g id="patch_1">
   <path d="M 0 648 
L 3455.681086 648 
L 3455.681086 0 
L 0 0 
z
" style="fill: #ffffff"/>
  </g>
  <g id="axes_1">
   <g id="patch_2">
    <path d="M 14.3 600.04 
L 3425.891086 600.04 
L 3425.891086 43.76 
L 14.3 43.76 
z
" style="fill: #ffffff"/>
   </g>
   <g id="patch_3">
    <path d="M 48.07813 500.704286 
L 81.643289 500.704286 
L 81.643289 302.032857 
L 48.07813 302.032857 
z
" clip-path="url(#p71367e8ccc)" style="fill: #ca7af5"/>
   </g>
   <g id="patch_4">
    <path d="M 81.643289 500.704286 
L 87.382492 500.704286 
L 87.382492 302.032857 
L 81.643289 302.032857 
z
" clip-path="url(#p71367e8ccc)" style="fill: #ffff73"/>
   </g>
   <g id="patch_5">
    <path d="M 87.382492 500.704286 
L 423.10133 500.704286 
L 423.10133 302.032857 
L 87.382492 302.032857 
z
" clip-path="url(#p71367e8ccc)" style="fill: #ca7af5"/>
   </g>
   <g id="patch_6">
    <path d="M 423.10133 500.704286 
L 435.255801 500.704286 
L 435.255801 302.032857 
L 423.10133 302.032857 
z
" clip-path="url(#p71367e8ccc)" style="fill: #ffebbe"/>
   </g>
   <g id="patch_7">
    <path d="M 435.255801 500.704286 
L 443.626378 500.704286 
L 443.626378 302.032857 
L 435.255801 302.032857 
z
" clip-path="url(#p71367e8ccc)" style="fill: #ca7af5"/>
   </g>
   <g id="patch_8">
    <path d="M 443.626378 500.704286 
L 447.123982 500.704286 
L 447.123982 302.032857 
L 443.626378 302.032857 
z
" clip-path="url(#p71367e8ccc)" style="fill: #ffebbe"/>
   </g>
   <g id="patch_9">
    <path d="M 447.123982 500.704286 
L 561.049962 500.704286 
L 561.049962 302.032857 
L 447.123982 302.032857 
z
" clip-path="url(#p71367e8ccc)" style="fill: #ca7af5"/>
   </g>
   <g id="patch_10">
    <path d="M 561.049962 500.704286 
L 567.134878 500.704286 
L 567.134878 302.032857 
L 561.049962 302.032857 
z
" clip-path="url(#p71367e8ccc)" style="fill: #ffff73"/>
   </g>
   <g id="patch_11">
    <path d="M 567.134878 500.704286 
L 682.510062 500.704286 
L 682.510062 302.032857 
L 567.134878 302.032857 
z
" clip-path="url(#p71367e8ccc)" style="fill: #ca7af5"/>
   </g>
   <g id="patch_12">
    <path d="M 682.510062 500.704286 
L 760.013019 500.704286 
L 760.013019 302.032857 
L 682.510062 302.032857 
z
" clip-path="url(#p71367e8ccc)" style="fill: #ffff73"/>
   </g>
   <g id="patch_13">
    <path d="M 760.013019 500.704286 
L 783.908902 500.704286 
L 783.908902 302.032857 
L 760.013019 302.032857 
z
" clip-path="url(#p71367e8ccc)" style="fill: #ca7af5"/>
   </g>
   <g id="patch_14">
    <path d="M 783.908902 500.704286 
L 827.29538 500.704286 
L 827.29538 302.032857 
L 783.908902 302.032857 
z
" clip-path="url(#p71367e8ccc)" style="fill: #ffff73"/>
   </g>
   <g id="patch_15">
    <path d="M 827.29538 500.704286 
L 832.203909 500.704286 
L 832.203909 302.032857 
L 827.29538 302.032857 
z
" clip-path="url(#p71367e8ccc)" style="fill: #ca7af5"/>
   </g>
   <g id="patch_16">
    <path d="M 832.203909 500.704286 
L 846.606974 500.704286 
L 846.606974 302.032857 
L 832.203909 302.032857 
z
" clip-path="url(#p71367e8ccc)" style="fill: #ffff73"/>
   </g>
   <g id="patch_17">
    <path d="M 846.606974 500.704286 
L 877.294556 500.704286 
L 877.294556 302.032857 
L 846.606974 302.032857 
z
" clip-path="url(#p71367e8ccc)" style="fill: #ffebbe"/>
   </g>
   <g id="patch_18">
    <path d="M 877.294556 500.704286 
L 910.235509 500.704286 
L 910.235509 302.032857 
L 877.294556 302.032857 
z
" clip-path="url(#p71367e8ccc)" style="fill: #ca7af5"/>
   </g>
   <g id="patch_19">
    <path d="M 910.235509 500.704286 
L 916.324266 500.704286 
L 916.324266 302.032857 
L 910.235509 302.032857 
z
" clip-path="url(#p71367e8ccc)" style="fill: #ffebbe"/>
   </g>
   <g id="patch_20">
    <path d="M 916.324266 500.704286 
L 1078.95421 500.704286 
L 1078.95421 302.032857 
L 916.324266 302.032857 
z
" clip-path="url(#p71367e8ccc)" style="fill: #ca7af5"/>
   </g>
   <g id="patch_21">
    <path d="M 1078.95421 500.704286 
L 1084.843266 500.704286 
L 1084.843266 302.032857 
L 1078.95421 302.032857 
z
" clip-path="url(#p71367e8ccc)" style="fill: #e6e0cc"/>
   </g>
   <g id="patch_22">
    <path d="M 1084.843266 500.704286 
L 1127.04146 500.704286 
L 1127.04146 302.032857 
L 1084.843266 302.032857 
z
" clip-path="url(#p71367e8ccc)" style="fill: #ffebbe"/>
   </g>
   <g id="patch_23">
    <path d="M 1127.04146 500.704286 
L 1176.079195 500.704286 
L 1176.079195 302.032857 
L 1127.04146 302.032857 
z
" clip-path="url(#p71367e8ccc)" style="fill: #ffff73"/>
   </g>
   <g id="patch_24">
    <path d="M 1176.079195 500.704286 
L 1193.300875 500.704286 
L 1193.300875 302.032857 
L 1176.079195 302.032857 
z
" clip-path="url(#p71367e8ccc)" style="fill: #ffebbe"/>
   </g>
   <g id="patch_25">
    <path d="M 1193.300875 500.704286 
L 1212.083075 500.704286 
L 1212.083075 302.032857 
L 1193.300875 302.032857 
z
" clip-path="url(#p71367e8ccc)" style="fill: #ffff73"/>
   </g>
   <g id="patch_26">
    <path d="M 1212.083075 500.704286 
L 1235.700534 500.704286 
L 1235.700534 302.032857 
L 1212.083075 302.032857 
z
" clip-path="url(#p71367e8ccc)" style="fill: #ffebbe"/>
   </g>
   <g id="patch_27">
    <path d="M 1235.700534 500.704286 
L 1329.653895 500.704286 
L 1329.653895 302.032857 
L 1235.700534 302.032857 
z
" clip-path="url(#p71367e8ccc)" style="fill: #e6e0cc"/>
   </g>
   <g id="patch_28">
    <path d="M 1329.653895 500.704286 
L 1355.925901 500.704286 
L 1355.925901 302.032857 
L 1329.653895 302.032857 
z
" clip-path="url(#p71367e8ccc)" style="fill: #ffff73"/>
   </g>
   <g id="patch_29">
    <path d="M 1355.925901 500.704286 
L 1379.328714 500.704286 
L 1379.328714 302.032857 
L 1355.925901 302.032857 
z
" clip-path="url(#p71367e8ccc)" style="fill: #e6e0cc"/>
   </g>
   <g id="patch_30">
    <path d="M 1379.328714 500.704286 
L 1428.327018 500.704286 
L 1428.327018 302.032857 
L 1379.328714 302.032857 
z
" clip-path="url(#p71367e8ccc)" style="fill: #ffff73"/>
   </g>
   <g id="patch_31">
    <path d="M 1428.327018 500.704286 
L 1464.749747 500.704286 
L 1464.749747 302.032857 
L 1428.327018 302.032857 
z
" clip-path="url(#p71367e8ccc)" style="fill: #ca7af5"/>
   </g>
   <g id="patch_32">
    <path d="M 1464.749747 500.704286 
L 1487.374477 500.704286 
L 1487.374477 302.032857 
L 1464.749747 302.032857 
z
" clip-path="url(#p71367e8ccc)" style="fill: #ffff73"/>
   </g>
   <g id="patch_33">
    <path d="M 1487.374477 500.704286 
L 1492.13336 500.704286 
L 1492.13336 302.032857 
L 1487.374477 302.032857 
z
" clip-path="url(#p71367e8ccc)" style="fill: #e6e0cc"/>
   </g>
   <g id="patch_34">
    <path d="M 1492.13336 500.704286 
L 1504.092923 500.704286 
L 1504.092923 302.032857 
L 1492.13336 302.032857 
z
" clip-path="url(#p71367e8ccc)" style="fill: #ffff73"/>
   </g>
   <g id="patch_35">
    <path d="M 1504.092923 500.704286 
L 1513.99473 500.704286 
L 1513.99473 302.032857 
L 1504.092923 302.032857 
z
" clip-path="url(#p71367e8ccc)" style="fill: #e6e0cc"/>
   </g>
   <g id="patch_36">
    <path d="M 1513.99473 500.704286 
L 1557.725951 500.704286 
L 1557.725951 302.032857 
L 1513.99473 302.032857 
z
" clip-path="url(#p71367e8ccc)" style="fill: #ffff73"/>
   </g>
   <g id="patch_37">
    <path d="M 1557.725951 500.704286 
L 1579.597608 500.704286 
L 1579.597608 302.032857 
L 1557.725951 302.032857 
z
" clip-path="url(#p71367e8ccc)" style="fill: #e6e0cc"/>
   </g>
   <g id="patch_38">
    <path d="M 1579.597608 500.704286 
L 1606.572302 500.704286 
L 1606.572302 302.032857 
L 1579.597608 302.032857 
z
" clip-path="url(#p71367e8ccc)" style="fill: #ffff73"/>
   </g>
   <g id="patch_39">
    <path d="M 1606.572302 500.704286 
L 1657.815392 500.704286 
L 1657.815392 302.032857 
L 1606.572302 302.032857 
z
" clip-path="url(#p71367e8ccc)" style="fill: #e6e0cc"/>
   </g>
   <g id="patch_40">
    <path d="M 1657.815392 500.704286 
L 1707.739143 500.704286 
L 1707.739143 302.032857 
L 1657.815392 302.032857 
z
" clip-path="url(#p71367e8ccc)" style="fill: #ca7af5"/>
   </g>
   <g id="patch_41">
    <path d="M 1707.739143 500.704286 
L 1812.967189 500.704286 
L 1812.967189 302.032857 
L 1707.739143 302.032857 
z
" clip-path="url(#p71367e8ccc)" style="fill: #e6e0cc"/>
   </g>
   <g id="patch_42">
    <path d="M 1812.967189 500.704286 
L 1865.615319 500.704286 
L 1865.615319 302.032857 
L 1812.967189 302.032857 
z
" clip-path="url(#p71367e8ccc)" style="fill: #ffff73"/>
   </g>
   <g id="patch_43">
    <path d="M 1865.615319 500.704286 
L 1944.911105 500.704286 
L 1944.911105 302.032857 
L 1865.615319 302.032857 
z
" clip-path="url(#p71367e8ccc)" style="fill: #ca7af5"/>
   </g>
   <g id="patch_44">
    <path d="M 1944.911105 500.704286 
L 1950.984975 500.704286 
L 1950.984975 302.032857 
L 1944.911105 302.032857 
z
" clip-path="url(#p71367e8ccc)" style="fill: #ffff73"/>
   </g>
   <g id="patch_45">
    <path d="M 1950.984975 500.704286 
L 2006.595225 500.704286 
L 2006.595225 302.032857 
L 1950.984975 302.032857 
z
" clip-path="url(#p71367e8ccc)" style="fill: #e6e0cc"/>
   </g>
   <g id="patch_46">
    <path d="M 2006.595225 500.704286 
L 2030.866224 500.704286 
L 2030.866224 302.032857 
L 2006.595225 302.032857 
z
" clip-path="url(#p71367e8ccc)" style="fill: #ffff73"/>
   </g>
   <g id="patch_47">
    <path d="M 2030.866224 500.704286 
L 2086.977417 500.704286 
L 2086.977417 302.032857 
L 2030.866224 302.032857 
z
" clip-path="url(#p71367e8ccc)" style="fill: #e6e0cc"/>
   </g>
   <g id="patch_48">
    <path d="M 2086.977417 500.704286 
L 2095.984426 500.704286 
L 2095.984426 302.032857 
L 2086.977417 302.032857 
z
" clip-path="url(#p71367e8ccc)" style="fill: #ffff73"/>
   </g>
   <g id="patch_49">
    <path d="M 2095.984426 500.704286 
L 2124.423272 500.704286 
L 2124.423272 302.032857 
L 2095.984426 302.032857 
z
" clip-path="url(#p71367e8ccc)" style="fill: #e6e0cc"/>
   </g>
   <g id="patch_50">
    <path d="M 2124.423272 500.704286 
L 2205.790565 500.704286 
L 2205.790565 302.032857 
L 2124.423272 302.032857 
z
" clip-path="url(#p71367e8ccc)" style="fill: #ffff73"/>
   </g>
   <g id="patch_51">
    <path d="M 2205.790565 500.704286 
L 2276.145254 500.704286 
L 2276.145254 302.032857 
L 2205.790565 302.032857 
z
" clip-path="url(#p71367e8ccc)" style="fill: #e6e0cc"/>
   </g>
   <g id="patch_52">
    <path d="M 2276.145254 500.704286 
L 2335.62714 500.704286 
L 2335.62714 302.032857 
L 2276.145254 302.032857 
z
" clip-path="url(#p71367e8ccc)" style="fill: #ffff73"/>
   </g>
   <g id="patch_53">
    <path d="M 2335.62714 500.704286 
L 2368.711519 500.704286 
L 2368.711519 302.032857 
L 2335.62714 302.032857 
z
" clip-path="url(#p71367e8ccc)" style="fill: #e6e0cc"/>
   </g>
   <g id="patch_54">
    <path d="M 2368.711519 500.704286 
L 3280.801934 500.704286 
L 3280.801934 302.032857 
L 2368.711519 302.032857 
z
" clip-path="url(#p71367e8ccc)" style="fill: #ffff73"/>
   </g>
   <g id="patch_55">
    <path d="M 3280.801934 500.704286 
L 3290.479338 500.704286 
L 3290.479338 302.032857 
L 3280.801934 302.032857 
z
" clip-path="url(#p71367e8ccc)" style="fill: #ca7af5"/>
   </g>
   <g id="matplotlib.axis_1">
    <g id="xtick_1">
     <g id="line2d_1">
      <defs>
       <path id="mf10eab7bb5" d="M 0 0 
L 0 3.5 
" style="stroke: #000000; stroke-width: 0.8"/>
      </defs>
      <g>
       <use xlink:href="#mf10eab7bb5" x="48.07813" y="600.04" style="stroke: #000000; stroke-width: 0.8"/>
      </g>
     </g>
     <g id="text_1">
      <!-- 0 mi. -->
      <g transform="translate(35.45938 614.638438) scale(0.1 -0.1)">
       <defs>
        <path id="DejaVuSans-30" d="M 2034 4250 
Q 1547 4250 1301 3770 
Q 1056 3291 1056 2328 
Q 1056 1369 1301 889 
Q 1547 409 2034 409 
Q 2525 409 2770 889 
Q 3016 1369 3016 2328 
Q 3016 3291 2770 3770 
Q 2525 4250 2034 4250 
z
M 2034 4750 
Q 2819 4750 3233 4129 
Q 3647 3509 3647 2328 
Q 3647 1150 3233 529 
Q 2819 -91 2034 -91 
Q 1250 -91 836 529 
Q 422 1150 422 2328 
Q 422 3509 836 4129 
Q 1250 4750 2034 4750 
z
" transform="scale(0.015625)"/>
        <path id="DejaVuSans-20" transform="scale(0.015625)"/>
        <path id="DejaVuSans-6d" d="M 3328 2828 
Q 3544 3216 3844 3400 
Q 4144 3584 4550 3584 
Q 5097 3584 5394 3201 
Q 5691 2819 5691 2113 
L 5691 0 
L 5113 0 
L 5113 2094 
Q 5113 2597 4934 2840 
Q 4756 3084 4391 3084 
Q 3944 3084 3684 2787 
Q 3425 2491 3425 1978 
L 3425 0 
L 2847 0 
L 2847 2094 
Q 2847 2600 2669 2842 
Q 2491 3084 2119 3084 
Q 1678 3084 1418 2786 
Q 1159 2488 1159 1978 
L 1159 0 
L 581 0 
L 581 3500 
L 1159 3500 
L 1159 2956 
Q 1356 3278 1631 3431 
Q 1906 3584 2284 3584 
Q 2666 3584 2933 3390 
Q 3200 3197 3328 2828 
z
" transform="scale(0.015625)"/>
        <path id="DejaVuSans-69" d="M 603 3500 
L 1178 3500 
L 1178 0 
L 603 0 
L 603 3500 
z
M 603 4863 
L 1178 4863 
L 1178 4134 
L 603 4134 
L 603 4863 
z
" transform="scale(0.015625)"/>
        <path id="DejaVuSans-2e" d="M 684 794 
L 1344 794 
L 1344 0 
L 684 0 
L 684 794 
z
" transform="scale(0.015625)"/>
       </defs>
       <use xlink:href="#DejaVuSans-30"/>
       <use xlink:href="#DejaVuSans-20" x="63.623047"/>
       <use xlink:href="#DejaVuSans-6d" x="95.410156"/>
       <use xlink:href="#DejaVuSans-69" x="192.822266"/>
       <use xlink:href="#DejaVuSans-2e" x="220.605469"/>
      </g>
     </g>
    </g>
    <g id="xtick_2">
     <g id="line2d_2">
      <g>
       <use xlink:href="#mf10eab7bb5" x="385.859425" y="600.04" style="stroke: #000000; stroke-width: 0.8"/>
      </g>
     </g>
     <g id="text_2">
      <!-- 10 mi. -->
      <g transform="translate(370.059425 614.638438) scale(0.1 -0.1)">
       <defs>
        <path id="DejaVuSans-31" d="M 794 531 
L 1825 531 
L 1825 4091 
L 703 3866 
L 703 4441 
L 1819 4666 
L 2450 4666 
L 2450 531 
L 3481 531 
L 3481 0 
L 794 0 
L 794 531 
z
" transform="scale(0.015625)"/>
       </defs>
       <use xlink:href="#DejaVuSans-31"/>
       <use xlink:href="#DejaVuSans-30" x="63.623047"/>
       <use xlink:href="#DejaVuSans-20" x="127.246094"/>
       <use xlink:href="#DejaVuSans-6d" x="159.033203"/>
       <use xlink:href="#DejaVuSans-69" x="256.445312"/>
       <use xlink:href="#DejaVuSans-2e" x="284.228516"/>
      </g>
     </g>
    </g>
    <g id="xtick_3">
     <g id="line2d_3">
      <g>
       <use xlink:href="#mf10eab7bb5" x="723.640721" y="600.04" style="stroke: #000000; stroke-width: 0.8"/>
      </g>
     </g>
     <g id="text_3">
      <!-- 20 mi. -->
      <g transform="translate(707.840721 614.638438) scale(0.1 -0.1)">
       <defs>
        <path id="DejaVuSans-32" d="M 1228 531 
L 3431 531 
L 3431 0 
L 469 0 
L 469 531 
Q 828 903 1448 1529 
Q 2069 2156 2228 2338 
Q 2531 2678 2651 2914 
Q 2772 3150 2772 3378 
Q 2772 3750 2511 3984 
Q 2250 4219 1831 4219 
Q 1534 4219 1204 4116 
Q 875 4013 500 3803 
L 500 4441 
Q 881 4594 1212 4672 
Q 1544 4750 1819 4750 
Q 2544 4750 2975 4387 
Q 3406 4025 3406 3419 
Q 3406 3131 3298 2873 
Q 3191 2616 2906 2266 
Q 2828 2175 2409 1742 
Q 1991 1309 1228 531 
z
" transform="scale(0.015625)"/>
       </defs>
       <use xlink:href="#DejaVuSans-32"/>
       <use xlink:href="#DejaVuSans-30" x="63.623047"/>
       <use xlink:href="#DejaVuSans-20" x="127.246094"/>
       <use xlink:href="#DejaVuSans-6d" x="159.033203"/>
       <use xlink:href="#DejaVuSans-69" x="256.445312"/>
       <use xlink:href="#DejaVuSans-2e" x="284.228516"/>
      </g>
     </g>
    </g>
    <g id="xtick_4">
     <g id="line2d_4">
      <g>
       <use xlink:href="#mf10eab7bb5" x="1061.422017" y="600.04" style="stroke: #000000; stroke-width: 0.8"/>
      </g>
     </g>
     <g id="text_4">
      <!-- 30 mi. -->
      <g transform="translate(1045.622017 614.638438) scale(0.1 -0.1)">
       <defs>
        <path id="DejaVuSans-33" d="M 2597 2516 
Q 3050 2419 3304 2112 
Q 3559 1806 3559 1356 
Q 3559 666 3084 287 
Q 2609 -91 1734 -91 
Q 1441 -91 1130 -33 
Q 819 25 488 141 
L 488 750 
Q 750 597 1062 519 
Q 1375 441 1716 441 
Q 2309 441 2620 675 
Q 2931 909 2931 1356 
Q 2931 1769 2642 2001 
Q 2353 2234 1838 2234 
L 1294 2234 
L 1294 2753 
L 1863 2753 
Q 2328 2753 2575 2939 
Q 2822 3125 2822 3475 
Q 2822 3834 2567 4026 
Q 2313 4219 1838 4219 
Q 1578 4219 1281 4162 
Q 984 4106 628 3988 
L 628 4550 
Q 988 4650 1302 4700 
Q 1616 4750 1894 4750 
Q 2613 4750 3031 4423 
Q 3450 4097 3450 3541 
Q 3450 3153 3228 2886 
Q 3006 2619 2597 2516 
z
" transform="scale(0.015625)"/>
       </defs>
       <use xlink:href="#DejaVuSans-33"/>
       <use xlink:href="#DejaVuSans-30" x="63.623047"/>
       <use xlink:href="#DejaVuSans-20" x="127.246094"/>
       <use xlink:href="#DejaVuSans-6d" x="159.033203"/>
       <use xlink:href="#DejaVuSans-69" x="256.445312"/>
       <use xlink:href="#DejaVuSans-2e" x="284.228516"/>
      </g>
     </g>
    </g>
    <g id="xtick_5">
     <g id="line2d_5">
      <g>
       <use xlink:href="#mf10eab7bb5" x="1399.203312" y="600.04" style="stroke: #000000; stroke-width: 0.8"/>
      </g>
     </g>
     <g id="text_5">
      <!-- 40 mi. -->
      <g transform="translate(1383.403312 614.638438) scale(0.1 -0.1)">
       <defs>
        <path id="DejaVuSans-34" d="M 2419 4116 
L 825 1625 
L 2419 1625 
L 2419 4116 
z
M 2253 4666 
L 3047 4666 
L 3047 1625 
L 3713 1625 
L 3713 1100 
L 3047 1100 
L 3047 0 
L 2419 0 
L 2419 1100 
L 313 1100 
L 313 1709 
L 2253 4666 
z
" transform="scale(0.015625)"/>
       </defs>
       <use xlink:href="#DejaVuSans-34"/>
       <use xlink:href="#DejaVuSans-30" x="63.623047"/>
       <use xlink:href="#DejaVuSans-20" x="127.246094"/>
       <use xlink:href="#DejaVuSans-6d" x="159.033203"/>
       <use xlink:href="#DejaVuSans-69" x="256.445312"/>
       <use xlink:href="#DejaVuSans-2e" x="284.228516"/>
      </g>
     </g>
    </g>
    <g id="xtick_6">
     <g id="line2d_6">
      <g>
       <use xlink:href="#mf10eab7bb5" x="1736.984608" y="600.04" style="stroke: #000000; stroke-width: 0.8"/>
      </g>
     </g>
     <g id="text_6">
      <!-- 50 mi. -->
      <g transform="translate(1721.184608 614.638438) scale(0.1 -0.1)">
       <defs>
        <path id="DejaVuSans-35" d="M 691 4666 
L 3169 4666 
L 3169 4134 
L 1269 4134 
L 1269 2991 
Q 1406 3038 1543 3061 
Q 1681 3084 1819 3084 
Q 2600 3084 3056 2656 
Q 3513 2228 3513 1497 
Q 3513 744 3044 326 
Q 2575 -91 1722 -91 
Q 1428 -91 1123 -41 
Q 819 9 494 109 
L 494 744 
Q 775 591 1075 516 
Q 1375 441 1709 441 
Q 2250 441 2565 725 
Q 2881 1009 2881 1497 
Q 2881 1984 2565 2268 
Q 2250 2553 1709 2553 
Q 1456 2553 1204 2497 
Q 953 2441 691 2322 
L 691 4666 
z
" transform="scale(0.015625)"/>
       </defs>
       <use xlink:href="#DejaVuSans-35"/>
       <use xlink:href="#DejaVuSans-30" x="63.623047"/>
       <use xlink:href="#DejaVuSans-20" x="127.246094"/>
       <use xlink:href="#DejaVuSans-6d" x="159.033203"/>
       <use xlink:href="#DejaVuSans-69" x="256.445312"/>
       <use xlink:href="#DejaVuSans-2e" x="284.228516"/>
      </g>
     </g>
    </g>
    <g id="xtick_7">
     <g id="line2d_7">
      <g>
       <use xlink:href="#mf10eab7bb5" x="2074.765904" y="600.04" style="stroke: #000000; stroke-width: 0.8"/>
      </g>
     </g>
     <g id="text_7">
      <!-- 60 mi. -->
      <g transform="translate(2058.965904 614.638438) scale(0.1 -0.1)">
       <defs>
        <path id="DejaVuSans-36" d="M 2113 2584 
Q 1688 2584 1439 2293 
Q 1191 2003 1191 1497 
Q 1191 994 1439 701 
Q 1688 409 2113 409 
Q 2538 409 2786 701 
Q 3034 994 3034 1497 
Q 3034 2003 2786 2293 
Q 2538 2584 2113 2584 
z
M 3366 4563 
L 3366 3988 
Q 3128 4100 2886 4159 
Q 2644 4219 2406 4219 
Q 1781 4219 1451 3797 
Q 1122 3375 1075 2522 
Q 1259 2794 1537 2939 
Q 1816 3084 2150 3084 
Q 2853 3084 3261 2657 
Q 3669 2231 3669 1497 
Q 3669 778 3244 343 
Q 2819 -91 2113 -91 
Q 1303 -91 875 529 
Q 447 1150 447 2328 
Q 447 3434 972 4092 
Q 1497 4750 2381 4750 
Q 2619 4750 2861 4703 
Q 3103 4656 3366 4563 
z
" transform="scale(0.015625)"/>
       </defs>
       <use xlink:href="#DejaVuSans-36"/>
       <use xlink:href="#DejaVuSans-30" x="63.623047"/>
       <use xlink:href="#DejaVuSans-20" x="127.246094"/>
       <use xlink:href="#DejaVuSans-6d" x="159.033203"/>
       <use xlink:href="#DejaVuSans-69" x="256.445312"/>
       <use xlink:href="#DejaVuSans-2e" x="284.228516"/>
      </g>
     </g>
    </g>
    <g id="xtick_8">
     <g id="line2d_8">
      <g>
       <use xlink:href="#mf10eab7bb5" x="2412.547199" y="600.04" style="stroke: #000000; stroke-width: 0.8"/>
      </g>
     </g>
     <g id="text_8">
      <!-- 70 mi. -->
      <g transform="translate(2396.747199 614.638438) scale(0.1 -0.1)">
       <defs>
        <path id="DejaVuSans-37" d="M 525 4666 
L 3525 4666 
L 3525 4397 
L 1831 0 
L 1172 0 
L 2766 4134 
L 525 4134 
L 525 4666 
z
" transform="scale(0.015625)"/>
       </defs>
       <use xlink:href="#DejaVuSans-37"/>
       <use xlink:href="#DejaVuSans-30" x="63.623047"/>
       <use xlink:href="#DejaVuSans-20" x="127.246094"/>
       <use xlink:href="#DejaVuSans-6d" x="159.033203"/>
       <use xlink:href="#DejaVuSans-69" x="256.445312"/>
       <use xlink:href="#DejaVuSans-2e" x="284.228516"/>
      </g>
     </g>
    </g>
    <g id="xtick_9">
     <g id="line2d_9">
      <g>
       <use xlink:href="#mf10eab7bb5" x="2750.328495" y="600.04" style="stroke: #000000; stroke-width: 0.8"/>
      </g>
     </g>
     <g id="text_9">
      <!-- 80 mi. -->
      <g transform="translate(2734.528495 614.638438) scale(0.1 -0.1)">
       <defs>
        <path id="DejaVuSans-38" d="M 2034 2216 
Q 1584 2216 1326 1975 
Q 1069 1734 1069 1313 
Q 1069 891 1326 650 
Q 1584 409 2034 409 
Q 2484 409 2743 651 
Q 3003 894 3003 1313 
Q 3003 1734 2745 1975 
Q 2488 2216 2034 2216 
z
M 1403 2484 
Q 997 2584 770 2862 
Q 544 3141 544 3541 
Q 544 4100 942 4425 
Q 1341 4750 2034 4750 
Q 2731 4750 3128 4425 
Q 3525 4100 3525 3541 
Q 3525 3141 3298 2862 
Q 3072 2584 2669 2484 
Q 3125 2378 3379 2068 
Q 3634 1759 3634 1313 
Q 3634 634 3220 271 
Q 2806 -91 2034 -91 
Q 1263 -91 848 271 
Q 434 634 434 1313 
Q 434 1759 690 2068 
Q 947 2378 1403 2484 
z
M 1172 3481 
Q 1172 3119 1398 2916 
Q 1625 2713 2034 2713 
Q 2441 2713 2670 2916 
Q 2900 3119 2900 3481 
Q 2900 3844 2670 4047 
Q 2441 4250 2034 4250 
Q 1625 4250 1398 4047 
Q 1172 3844 1172 3481 
z
" transform="scale(0.015625)"/>
       </defs>
       <use xlink:href="#DejaVuSans-38"/>
       <use xlink:href="#DejaVuSans-30" x="63.623047"/>
       <use xlink:href="#DejaVuSans-20" x="127.246094"/>
       <use xlink:href="#DejaVuSans-6d" x="159.033203"/>
       <use xlink:href="#DejaVuSans-69" x="256.445312"/>
       <use xlink:href="#DejaVuSans-2e" x="284.228516"/>
      </g>
     </g>
    </g>
    <g id="xtick_10">
     <g id="line2d_10">
      <g>
       <use xlink:href="#mf10eab7bb5" x="3088.109791" y="600.04" style="stroke: #000000; stroke-width: 0.8"/>
      </g>
     </g>
     <g id="text_10">
      <!-- 90 mi. -->
      <g transform="translate(3072.309791 614.638438) scale(0.1 -0.1)">
       <defs>
        <path id="DejaVuSans-39" d="M 703 97 
L 703 672 
Q 941 559 1184 500 
Q 1428 441 1663 441 
Q 2288 441 2617 861 
Q 2947 1281 2994 2138 
Q 2813 1869 2534 1725 
Q 2256 1581 1919 1581 
Q 1219 1581 811 2004 
Q 403 2428 403 3163 
Q 403 3881 828 4315 
Q 1253 4750 1959 4750 
Q 2769 4750 3195 4129 
Q 3622 3509 3622 2328 
Q 3622 1225 3098 567 
Q 2575 -91 1691 -91 
Q 1453 -91 1209 -44 
Q 966 3 703 97 
z
M 1959 2075 
Q 2384 2075 2632 2365 
Q 2881 2656 2881 3163 
Q 2881 3666 2632 3958 
Q 2384 4250 1959 4250 
Q 1534 4250 1286 3958 
Q 1038 3666 1038 3163 
Q 1038 2656 1286 2365 
Q 1534 2075 1959 2075 
z
" transform="scale(0.015625)"/>
       </defs>
       <use xlink:href="#DejaVuSans-39"/>
       <use xlink:href="#DejaVuSans-30" x="63.623047"/>
       <use xlink:href="#DejaVuSans-20" x="127.246094"/>
       <use xlink:href="#DejaVuSans-6d" x="159.033203"/>
       <use xlink:href="#DejaVuSans-69" x="256.445312"/>
       <use xlink:href="#DejaVuSans-2e" x="284.228516"/>
      </g>
     </g>
    </g>
    <g id="xtick_11">
     <g id="line2d_11">
      <g>
       <use xlink:href="#mf10eab7bb5" x="3425.891086" y="600.04" style="stroke: #000000; stroke-width: 0.8"/>
      </g>
     </g>
     <g id="text_11">
      <!-- 100 mi. -->
      <g transform="translate(3406.909836 614.638438) scale(0.1 -0.1)">
       <use xlink:href="#DejaVuSans-31"/>
       <use xlink:href="#DejaVuSans-30" x="63.623047"/>
       <use xlink:href="#DejaVuSans-30" x="127.246094"/>
       <use xlink:href="#DejaVuSans-20" x="190.869141"/>
       <use xlink:href="#DejaVuSans-6d" x="222.65625"/>
       <use xlink:href="#DejaVuSans-69" x="320.068359"/>
       <use xlink:href="#DejaVuSans-2e" x="347.851562"/>
      </g>
     </g>
    </g>
    <g id="text_12">
     <!-- Distance (miles) -->
     <g transform="translate(1679.412731 634.316563) scale(0.1 -0.1)">
      <defs>
       <path id="DejaVuSans-44" d="M 1259 4147 
L 1259 519 
L 2022 519 
Q 2988 519 3436 956 
Q 3884 1394 3884 2338 
Q 3884 3275 3436 3711 
Q 2988 4147 2022 4147 
L 1259 4147 
z
M 628 4666 
L 1925 4666 
Q 3281 4666 3915 4102 
Q 4550 3538 4550 2338 
Q 4550 1131 3912 565 
Q 3275 0 1925 0 
L 628 0 
L 628 4666 
z
" transform="scale(0.015625)"/>
       <path id="DejaVuSans-73" d="M 2834 3397 
L 2834 2853 
Q 2591 2978 2328 3040 
Q 2066 3103 1784 3103 
Q 1356 3103 1142 2972 
Q 928 2841 928 2578 
Q 928 2378 1081 2264 
Q 1234 2150 1697 2047 
L 1894 2003 
Q 2506 1872 2764 1633 
Q 3022 1394 3022 966 
Q 3022 478 2636 193 
Q 2250 -91 1575 -91 
Q 1294 -91 989 -36 
Q 684 19 347 128 
L 347 722 
Q 666 556 975 473 
Q 1284 391 1588 391 
Q 1994 391 2212 530 
Q 2431 669 2431 922 
Q 2431 1156 2273 1281 
Q 2116 1406 1581 1522 
L 1381 1569 
Q 847 1681 609 1914 
Q 372 2147 372 2553 
Q 372 3047 722 3315 
Q 1072 3584 1716 3584 
Q 2034 3584 2315 3537 
Q 2597 3491 2834 3397 
z
" transform="scale(0.015625)"/>
       <path id="DejaVuSans-74" d="M 1172 4494 
L 1172 3500 
L 2356 3500 
L 2356 3053 
L 1172 3053 
L 1172 1153 
Q 1172 725 1289 603 
Q 1406 481 1766 481 
L 2356 481 
L 2356 0 
L 1766 0 
Q 1100 0 847 248 
Q 594 497 594 1153 
L 594 3053 
L 172 3053 
L 172 3500 
L 594 3500 
L 594 4494 
L 1172 4494 
z
" transform="scale(0.015625)"/>
       <path id="DejaVuSans-61" d="M 2194 1759 
Q 1497 1759 1228 1600 
Q 959 1441 959 1056 
Q 959 750 1161 570 
Q 1363 391 1709 391 
Q 2188 391 2477 730 
Q 2766 1069 2766 1631 
L 2766 1759 
L 2194 1759 
z
M 3341 1997 
L 3341 0 
L 2766 0 
L 2766 531 
Q 2569 213 2275 61 
Q 1981 -91 1556 -91 
Q 1019 -91 701 211 
Q 384 513 384 1019 
Q 384 1609 779 1909 
Q 1175 2209 1959 2209 
L 2766 2209 
L 2766 2266 
Q 2766 2663 2505 2880 
Q 2244 3097 1772 3097 
Q 1472 3097 1187 3025 
Q 903 2953 641 2809 
L 641 3341 
Q 956 3463 1253 3523 
Q 1550 3584 1831 3584 
Q 2591 3584 2966 3190 
Q 3341 2797 3341 1997 
z
" transform="scale(0.015625)"/>
       <path id="DejaVuSans-6e" d="M 3513 2113 
L 3513 0 
L 2938 0 
L 2938 2094 
Q 2938 2591 2744 2837 
Q 2550 3084 2163 3084 
Q 1697 3084 1428 2787 
Q 1159 2491 1159 1978 
L 1159 0 
L 581 0 
L 581 3500 
L 1159 3500 
L 1159 2956 
Q 1366 3272 1645 3428 
Q 1925 3584 2291 3584 
Q 2894 3584 3203 3211 
Q 3513 2838 3513 2113 
z
" transform="scale(0.015625)"/>
       <path id="DejaVuSans-63" d="M 3122 3366 
L 3122 2828 
Q 2878 2963 2633 3030 
Q 2388 3097 2138 3097 
Q 1578 3097 1268 2742 
Q 959 2388 959 1747 
Q 959 1106 1268 751 
Q 1578 397 2138 397 
Q 2388 397 2633 464 
Q 2878 531 3122 666 
L 3122 134 
Q 2881 22 2623 -34 
Q 2366 -91 2075 -91 
Q 1284 -91 818 406 
Q 353 903 353 1747 
Q 353 2603 823 3093 
Q 1294 3584 2113 3584 
Q 2378 3584 2631 3529 
Q 2884 3475 3122 3366 
z
" transform="scale(0.015625)"/>
       <path id="DejaVuSans-65" d="M 3597 1894 
L 3597 1613 
L 953 1613 
Q 991 1019 1311 708 
Q 1631 397 2203 397 
Q 2534 397 2845 478 
Q 3156 559 3463 722 
L 3463 178 
Q 3153 47 2828 -22 
Q 2503 -91 2169 -91 
Q 1331 -91 842 396 
Q 353 884 353 1716 
Q 353 2575 817 3079 
Q 1281 3584 2069 3584 
Q 2775 3584 3186 3129 
Q 3597 2675 3597 1894 
z
M 3022 2063 
Q 3016 2534 2758 2815 
Q 2500 3097 2075 3097 
Q 1594 3097 1305 2825 
Q 1016 2553 972 2059 
L 3022 2063 
z
" transform="scale(0.015625)"/>
       <path id="DejaVuSans-28" d="M 1984 4856 
Q 1566 4138 1362 3434 
Q 1159 2731 1159 2009 
Q 1159 1288 1364 580 
Q 1569 -128 1984 -844 
L 1484 -844 
Q 1016 -109 783 600 
Q 550 1309 550 2009 
Q 550 2706 781 3412 
Q 1013 4119 1484 4856 
L 1984 4856 
z
" transform="scale(0.015625)"/>
       <path id="DejaVuSans-6c" d="M 603 4863 
L 1178 4863 
L 1178 0 
L 603 0 
L 603 4863 
z
" transform="scale(0.015625)"/>
       <path id="DejaVuSans-29" d="M 513 4856 
L 1013 4856 
Q 1481 4119 1714 3412 
Q 1947 2706 1947 2009 
Q 1947 1309 1714 600 
Q 1481 -109 1013 -844 
L 513 -844 
Q 928 -128 1133 580 
Q 1338 1288 1338 2009 
Q 1338 2731 1133 3434 
Q 928 4138 513 4856 
z
" transform="scale(0.015625)"/>
      </defs>
      <use xlink:href="#DejaVuSans-44"/>
      <use xlink:href="#DejaVuSans-69" x="77.001953"/>
      <use xlink:href="#DejaVuSans-73" x="104.785156"/>
      <use xlink:href="#DejaVuSans-74" x="156.884766"/>
      <use xlink:href="#DejaVuSans-61" x="196.09375"/>
      <use xlink:href="#DejaVuSans-6e" x="257.373047"/>
      <use xlink:href="#DejaVuSans-63" x="320.751953"/>
      <use xlink:href="#DejaVuSans-65" x="375.732422"/>
      <use xlink:href="#DejaVuSans-20" x="437.255859"/>
      <use xlink:href="#DejaVuSans-28" x="469.042969"/>
      <use xlink:href="#DejaVuSans-6d" x="508.056641"/>
      <use xlink:href="#DejaVuSans-69" x="605.46875"/>
      <use xlink:href="#DejaVuSans-6c" x="633.251953"/>
      <use xlink:href="#DejaVuSans-65" x="661.035156"/>
      <use xlink:href="#DejaVuSans-73" x="722.558594"/>
      <use xlink:href="#DejaVuSans-29" x="774.658203"/>
     </g>
    </g>
   </g>
   <g id="matplotlib.axis_2"/>
   <g id="line2d_12">
    <path d="M 64.860709 302.032857 
L 113.496727 182.83 
" clip-path="url(#p71367e8ccc)" style="fill: none; stroke: #000000; stroke-width: 0.8; stroke-linecap: square"/>
   </g>
   <g id="line2d_13">
    <path d="M 84.51289 302.032857 
L 133.148909 242.431429 
" clip-path="url(#p71367e8ccc)" style="fill: none; stroke: #000000; stroke-width: 0.8; stroke-linecap: square"/>
   </g>
   <g id="line2d_14">
    <path d="M 429.178565 302.032857 
L 477.814583 182.83 
" clip-path="url(#p71367e8ccc)" style="fill: none; stroke: #000000; stroke-width: 0.8; stroke-linecap: square"/>
   </g>
   <g id="line2d_15">
    <path d="M 439.441089 302.032857 
L 488.077108 242.431429 
" clip-path="url(#p71367e8ccc)" style="fill: none; stroke: #000000; stroke-width: 0.8; stroke-linecap: square"/>
   </g>
   <g id="line2d_16">
    <path d="M 445.37518 302.032857 
L 494.011198 182.83 
" clip-path="url(#p71367e8ccc)" style="fill: none; stroke: #000000; stroke-width: 0.8; stroke-linecap: square"/>
   </g>
   <g id="line2d_17">
    <path d="M 504.086972 302.032857 
L 552.72299 242.431429 
" clip-path="url(#p71367e8ccc)" style="fill: none; stroke: #000000; stroke-width: 0.8; stroke-linecap: square"/>
   </g>
   <g id="line2d_18">
    <path d="M 564.09242 302.032857 
L 612.728438 182.83 
" clip-path="url(#p71367e8ccc)" style="fill: none; stroke: #000000; stroke-width: 0.8; stroke-linecap: square"/>
   </g>
   <g id="line2d_19">
    <path d="M 624.82247 302.032857 
L 673.458488 242.431429 
" clip-path="url(#p71367e8ccc)" style="fill: none; stroke: #000000; stroke-width: 0.8; stroke-linecap: square"/>
   </g>
   <g id="line2d_20">
    <path d="M 721.261541 302.032857 
L 769.897559 182.83 
" clip-path="url(#p71367e8ccc)" style="fill: none; stroke: #000000; stroke-width: 0.8; stroke-linecap: square"/>
   </g>
   <g id="line2d_21">
    <path d="M 771.96096 302.032857 
L 820.596979 242.431429 
" clip-path="url(#p71367e8ccc)" style="fill: none; stroke: #000000; stroke-width: 0.8; stroke-linecap: square"/>
   </g>
   <g id="line2d_22">
    <path d="M 805.602141 302.032857 
L 854.238159 182.83 
" clip-path="url(#p71367e8ccc)" style="fill: none; stroke: #000000; stroke-width: 0.8; stroke-linecap: square"/>
   </g>
   <g id="line2d_23">
    <path d="M 829.749644 302.032857 
L 878.385663 242.431429 
" clip-path="url(#p71367e8ccc)" style="fill: none; stroke: #000000; stroke-width: 0.8; stroke-linecap: square"/>
   </g>
   <g id="line2d_24">
    <path d="M 839.405441 302.032857 
L 888.04146 182.83 
" clip-path="url(#p71367e8ccc)" style="fill: none; stroke: #000000; stroke-width: 0.8; stroke-linecap: square"/>
   </g>
   <g id="line2d_25">
    <path d="M 861.950765 302.032857 
L 910.586783 242.431429 
" clip-path="url(#p71367e8ccc)" style="fill: none; stroke: #000000; stroke-width: 0.8; stroke-linecap: square"/>
   </g>
   <g id="line2d_26">
    <path d="M 893.765032 302.032857 
L 942.40105 182.83 
" clip-path="url(#p71367e8ccc)" style="fill: none; stroke: #000000; stroke-width: 0.8; stroke-linecap: square"/>
   </g>
   <g id="line2d_27">
    <path d="M 913.279887 302.032857 
L 961.915905 242.431429 
" clip-path="url(#p71367e8ccc)" style="fill: none; stroke: #000000; stroke-width: 0.8; stroke-linecap: square"/>
   </g>
   <g id="line2d_28">
    <path d="M 997.639238 302.032857 
L 1046.275256 182.83 
" clip-path="url(#p71367e8ccc)" style="fill: none; stroke: #000000; stroke-width: 0.8; stroke-linecap: square"/>
   </g>
   <g id="line2d_29">
    <path d="M 1081.898738 302.032857 
L 1130.534756 242.431429 
" clip-path="url(#p71367e8ccc)" style="fill: none; stroke: #000000; stroke-width: 0.8; stroke-linecap: square"/>
   </g>
   <g id="line2d_30">
    <path d="M 1105.942363 302.032857 
L 1154.578381 182.83 
" clip-path="url(#p71367e8ccc)" style="fill: none; stroke: #000000; stroke-width: 0.8; stroke-linecap: square"/>
   </g>
   <g id="line2d_31">
    <path d="M 1151.560327 302.032857 
L 1200.196345 242.431429 
" clip-path="url(#p71367e8ccc)" style="fill: none; stroke: #000000; stroke-width: 0.8; stroke-linecap: square"/>
   </g>
   <g id="line2d_32">
    <path d="M 1184.690035 302.032857 
L 1233.326053 182.83 
" clip-path="url(#p71367e8ccc)" style="fill: none; stroke: #000000; stroke-width: 0.8; stroke-linecap: square"/>
   </g>
   <g id="line2d_33">
    <path d="M 1202.691975 302.032857 
L 1251.327993 242.431429 
" clip-path="url(#p71367e8ccc)" style="fill: none; stroke: #000000; stroke-width: 0.8; stroke-linecap: square"/>
   </g>
   <g id="line2d_34">
    <path d="M 1223.891804 302.032857 
L 1272.527822 182.83 
" clip-path="url(#p71367e8ccc)" style="fill: none; stroke: #000000; stroke-width: 0.8; stroke-linecap: square"/>
   </g>
   <g id="line2d_35">
    <path d="M 1282.677214 302.032857 
L 1331.313232 242.431429 
" clip-path="url(#p71367e8ccc)" style="fill: none; stroke: #000000; stroke-width: 0.8; stroke-linecap: square"/>
   </g>
   <g id="line2d_36">
    <path d="M 1342.789898 302.032857 
L 1391.425916 182.83 
" clip-path="url(#p71367e8ccc)" style="fill: none; stroke: #000000; stroke-width: 0.8; stroke-linecap: square"/>
   </g>
   <g id="line2d_37">
    <path d="M 1367.627308 302.032857 
L 1416.263326 242.431429 
" clip-path="url(#p71367e8ccc)" style="fill: none; stroke: #000000; stroke-width: 0.8; stroke-linecap: square"/>
   </g>
   <g id="line2d_38">
    <path d="M 1403.827866 302.032857 
L 1452.463884 182.83 
" clip-path="url(#p71367e8ccc)" style="fill: none; stroke: #000000; stroke-width: 0.8; stroke-linecap: square"/>
   </g>
   <g id="line2d_39">
    <path d="M 1446.538382 302.032857 
L 1495.1744 242.431429 
" clip-path="url(#p71367e8ccc)" style="fill: none; stroke: #000000; stroke-width: 0.8; stroke-linecap: square"/>
   </g>
   <g id="line2d_40">
    <path d="M 1476.062112 302.032857 
L 1524.69813 182.83 
" clip-path="url(#p71367e8ccc)" style="fill: none; stroke: #000000; stroke-width: 0.8; stroke-linecap: square"/>
   </g>
   <g id="line2d_41">
    <path d="M 1489.753918 302.032857 
L 1538.389936 242.431429 
" clip-path="url(#p71367e8ccc)" style="fill: none; stroke: #000000; stroke-width: 0.8; stroke-linecap: square"/>
   </g>
   <g id="line2d_42">
    <path d="M 1498.113142 302.032857 
L 1546.74916 182.83 
" clip-path="url(#p71367e8ccc)" style="fill: none; stroke: #000000; stroke-width: 0.8; stroke-linecap: square"/>
   </g>
   <g id="line2d_43">
    <path d="M 1509.043827 302.032857 
L 1557.679845 242.431429 
" clip-path="url(#p71367e8ccc)" style="fill: none; stroke: #000000; stroke-width: 0.8; stroke-linecap: square"/>
   </g>
   <g id="line2d_44">
    <path d="M 1535.860341 302.032857 
L 1584.496359 182.83 
" clip-path="url(#p71367e8ccc)" style="fill: none; stroke: #000000; stroke-width: 0.8; stroke-linecap: square"/>
   </g>
   <g id="line2d_45">
    <path d="M 1568.661779 302.032857 
L 1617.297797 242.431429 
" clip-path="url(#p71367e8ccc)" style="fill: none; stroke: #000000; stroke-width: 0.8; stroke-linecap: square"/>
   </g>
   <g id="line2d_46">
    <path d="M 1593.084955 302.032857 
L 1641.720973 182.83 
" clip-path="url(#p71367e8ccc)" style="fill: none; stroke: #000000; stroke-width: 0.8; stroke-linecap: square"/>
   </g>
   <g id="line2d_47">
    <path d="M 1632.193847 302.032857 
L 1680.829865 242.431429 
" clip-path="url(#p71367e8ccc)" style="fill: none; stroke: #000000; stroke-width: 0.8; stroke-linecap: square"/>
   </g>
   <g id="line2d_48">
    <path d="M 1682.777268 302.032857 
L 1731.413286 182.83 
" clip-path="url(#p71367e8ccc)" style="fill: none; stroke: #000000; stroke-width: 0.8; stroke-linecap: square"/>
   </g>
   <g id="line2d_49">
    <path d="M 1760.353166 302.032857 
L 1808.989184 242.431429 
" clip-path="url(#p71367e8ccc)" style="fill: none; stroke: #000000; stroke-width: 0.8; stroke-linecap: square"/>
   </g>
   <g id="line2d_50">
    <path d="M 1839.291254 302.032857 
L 1887.927272 182.83 
" clip-path="url(#p71367e8ccc)" style="fill: none; stroke: #000000; stroke-width: 0.8; stroke-linecap: square"/>
   </g>
   <g id="line2d_51">
    <path d="M 1905.263212 302.032857 
L 1953.89923 242.431429 
" clip-path="url(#p71367e8ccc)" style="fill: none; stroke: #000000; stroke-width: 0.8; stroke-linecap: square"/>
   </g>
   <g id="line2d_52">
    <path d="M 1947.94804 302.032857 
L 1996.584058 182.83 
" clip-path="url(#p71367e8ccc)" style="fill: none; stroke: #000000; stroke-width: 0.8; stroke-linecap: square"/>
   </g>
   <g id="line2d_53">
    <path d="M 1978.7901 302.032857 
L 2027.426118 242.431429 
" clip-path="url(#p71367e8ccc)" style="fill: none; stroke: #000000; stroke-width: 0.8; stroke-linecap: square"/>
   </g>
   <g id="line2d_54">
    <path d="M 2018.730725 302.032857 
L 2067.366743 182.83 
" clip-path="url(#p71367e8ccc)" style="fill: none; stroke: #000000; stroke-width: 0.8; stroke-linecap: square"/>
   </g>
   <g id="line2d_55">
    <path d="M 2058.92182 302.032857 
L 2107.557838 242.431429 
" clip-path="url(#p71367e8ccc)" style="fill: none; stroke: #000000; stroke-width: 0.8; stroke-linecap: square"/>
   </g>
   <g id="line2d_56">
    <path d="M 2091.480921 302.032857 
L 2140.116939 182.83 
" clip-path="url(#p71367e8ccc)" style="fill: none; stroke: #000000; stroke-width: 0.8; stroke-linecap: square"/>
   </g>
   <g id="line2d_57">
    <path d="M 2110.203849 302.032857 
L 2158.839867 242.431429 
" clip-path="url(#p71367e8ccc)" style="fill: none; stroke: #000000; stroke-width: 0.8; stroke-linecap: square"/>
   </g>
   <g id="line2d_58">
    <path d="M 2165.106918 302.032857 
L 2213.742936 182.83 
" clip-path="url(#p71367e8ccc)" style="fill: none; stroke: #000000; stroke-width: 0.8; stroke-linecap: square"/>
   </g>
   <g id="line2d_59">
    <path d="M 2240.967909 302.032857 
L 2289.603927 242.431429 
" clip-path="url(#p71367e8ccc)" style="fill: none; stroke: #000000; stroke-width: 0.8; stroke-linecap: square"/>
   </g>
   <g id="line2d_60">
    <path d="M 2305.886197 302.032857 
L 2354.522215 182.83 
" clip-path="url(#p71367e8ccc)" style="fill: none; stroke: #000000; stroke-width: 0.8; stroke-linecap: square"/>
   </g>
   <g id="line2d_61">
    <path d="M 2352.169329 302.032857 
L 2400.805348 242.431429 
" clip-path="url(#p71367e8ccc)" style="fill: none; stroke: #000000; stroke-width: 0.8; stroke-linecap: square"/>
   </g>
   <g id="line2d_62">
    <path d="M 3285.640636 302.032857 
L 3334.276654 182.83 
" clip-path="url(#p71367e8ccc)" style="fill: none; stroke: #000000; stroke-width: 0.8; stroke-linecap: square"/>
   </g>
   <g id="patch_56">
    <path d="M 14.3 600.04 
L 14.3 43.76 
" style="fill: none; stroke: #000000; stroke-width: 0.8; stroke-linejoin: miter; stroke-linecap: square"/>
   </g>
   <g id="patch_57">
    <path d="M 3425.891086 600.04 
L 3425.891086 43.76 
" style="fill: none; stroke: #000000; stroke-width: 0.8; stroke-linejoin: miter; stroke-linecap: square"/>
   </g>
   <g id="patch_58">
    <path d="M 14.3 600.04 
L 3425.891086 600.04 
" style="fill: none; stroke: #000000; stroke-width: 0.8; stroke-linejoin: miter; stroke-linecap: square"/>
   </g>
   <g id="patch_59">
    <path d="M 14.3 43.76 
L 3425.891086 43.76 
" style="fill: none; stroke: #000000; stroke-width: 0.8; stroke-linejoin: miter; stroke-linecap: square"/>
   </g>
   <g id="text_13">
    <!-- STATE -->
    <g transform="translate(118.869634 171.425867) rotate(-45) scale(0.1 -0.1)">
     <defs>
      <path id="DejaVuSans-53" d="M 3425 4513 
L 3425 3897 
Q 3066 4069 2747 4153 
Q 2428 4238 2131 4238 
Q 1616 4238 1336 4038 
Q 1056 3838 1056 3469 
Q 1056 3159 1242 3001 
Q 1428 2844 1947 2747 
L 2328 2669 
Q 3034 2534 3370 2195 
Q 3706 1856 3706 1288 
Q 3706 609 3251 259 
Q 2797 -91 1919 -91 
Q 1588 -91 1214 -16 
Q 841 59 441 206 
L 441 856 
Q 825 641 1194 531 
Q 1563 422 1919 422 
Q 2459 422 2753 634 
Q 3047 847 3047 1241 
Q 3047 1584 2836 1778 
Q 2625 1972 2144 2069 
L 1759 2144 
Q 1053 2284 737 2584 
Q 422 2884 422 3419 
Q 422 4038 858 4394 
Q 1294 4750 2059 4750 
Q 2388 4750 2728 4690 
Q 3069 4631 3425 4513 
z
" transform="scale(0.015625)"/>
      <path id="DejaVuSans-54" d="M -19 4666 
L 3928 4666 
L 3928 4134 
L 2272 4134 
L 2272 0 
L 1638 0 
L 1638 4134 
L -19 4134 
L -19 4666 
z
" transform="scale(0.015625)"/>
      <path id="DejaVuSans-41" d="M 2188 4044 
L 1331 1722 
L 3047 1722 
L 2188 4044 
z
M 1831 4666 
L 2547 4666 
L 4325 0 
L 3669 0 
L 3244 1197 
L 1141 1197 
L 716 0 
L 50 0 
L 1831 4666 
z
" transform="scale(0.015625)"/>
      <path id="DejaVuSans-45" d="M 628 4666 
L 3578 4666 
L 3578 4134 
L 1259 4134 
L 1259 2753 
L 3481 2753 
L 3481 2222 
L 1259 2222 
L 1259 531 
L 3634 531 
L 3634 0 
L 628 0 
L 628 4666 
z
" transform="scale(0.015625)"/>
     </defs>
     <use xlink:href="#DejaVuSans-53"/>
     <use xlink:href="#DejaVuSans-54" x="63.476562"/>
     <use xlink:href="#DejaVuSans-41" x="116.810547"/>
     <use xlink:href="#DejaVuSans-54" x="177.46875"/>
     <use xlink:href="#DejaVuSans-45" x="238.552734"/>
    </g>
   </g>
   <g id="text_14">
    <!-- BLM -->
    <g transform="translate(138.521815 231.027296) rotate(-45) scale(0.1 -0.1)">
     <defs>
      <path id="DejaVuSans-42" d="M 1259 2228 
L 1259 519 
L 2272 519 
Q 2781 519 3026 730 
Q 3272 941 3272 1375 
Q 3272 1813 3026 2020 
Q 2781 2228 2272 2228 
L 1259 2228 
z
M 1259 4147 
L 1259 2741 
L 2194 2741 
Q 2656 2741 2882 2914 
Q 3109 3088 3109 3444 
Q 3109 3797 2882 3972 
Q 2656 4147 2194 4147 
L 1259 4147 
z
M 628 4666 
L 2241 4666 
Q 2963 4666 3353 4366 
Q 3744 4066 3744 3513 
Q 3744 3084 3544 2831 
Q 3344 2578 2956 2516 
Q 3422 2416 3680 2098 
Q 3938 1781 3938 1306 
Q 3938 681 3513 340 
Q 3088 0 2303 0 
L 628 0 
L 628 4666 
z
" transform="scale(0.015625)"/>
      <path id="DejaVuSans-4c" d="M 628 4666 
L 1259 4666 
L 1259 531 
L 3531 531 
L 3531 0 
L 628 0 
L 628 4666 
z
" transform="scale(0.015625)"/>
      <path id="DejaVuSans-4d" d="M 628 4666 
L 1569 4666 
L 2759 1491 
L 3956 4666 
L 4897 4666 
L 4897 0 
L 4281 0 
L 4281 4097 
L 3078 897 
L 2444 897 
L 1241 4097 
L 1241 0 
L 628 0 
L 628 4666 
z
" transform="scale(0.015625)"/>
     </defs>
     <use xlink:href="#DejaVuSans-42"/>
     <use xlink:href="#DejaVuSans-4c" x="68.603516"/>
     <use xlink:href="#DejaVuSans-4d" x="124.316406"/>
    </g>
   </g>
   <g id="text_15">
    <!-- STATE -->
    <g transform="translate(234.922536 404.679821) scale(0.12 -0.12)">
     <defs>
      <path id="DejaVuSans-Bold-53" d="M 3834 4519 
L 3834 3531 
Q 3450 3703 3084 3790 
Q 2719 3878 2394 3878 
Q 1963 3878 1756 3759 
Q 1550 3641 1550 3391 
Q 1550 3203 1689 3098 
Q 1828 2994 2194 2919 
L 2706 2816 
Q 3484 2659 3812 2340 
Q 4141 2022 4141 1434 
Q 4141 663 3683 286 
Q 3225 -91 2284 -91 
Q 1841 -91 1394 -6 
Q 947 78 500 244 
L 500 1259 
Q 947 1022 1364 901 
Q 1781 781 2169 781 
Q 2563 781 2772 912 
Q 2981 1044 2981 1288 
Q 2981 1506 2839 1625 
Q 2697 1744 2272 1838 
L 1806 1941 
Q 1106 2091 782 2419 
Q 459 2747 459 3303 
Q 459 4000 909 4375 
Q 1359 4750 2203 4750 
Q 2588 4750 2994 4692 
Q 3400 4634 3834 4519 
z
" transform="scale(0.015625)"/>
      <path id="DejaVuSans-Bold-54" d="M 31 4666 
L 4331 4666 
L 4331 3756 
L 2784 3756 
L 2784 0 
L 1581 0 
L 1581 3756 
L 31 3756 
L 31 4666 
z
" transform="scale(0.015625)"/>
      <path id="DejaVuSans-Bold-41" d="M 3419 850 
L 1538 850 
L 1241 0 
L 31 0 
L 1759 4666 
L 3194 4666 
L 4922 0 
L 3713 0 
L 3419 850 
z
M 1838 1716 
L 3116 1716 
L 2478 3572 
L 1838 1716 
z
" transform="scale(0.015625)"/>
      <path id="DejaVuSans-Bold-45" d="M 588 4666 
L 3834 4666 
L 3834 3756 
L 1791 3756 
L 1791 2888 
L 3713 2888 
L 3713 1978 
L 1791 1978 
L 1791 909 
L 3903 909 
L 3903 0 
L 588 0 
L 588 4666 
z
" transform="scale(0.015625)"/>
     </defs>
     <use xlink:href="#DejaVuSans-Bold-53"/>
     <use xlink:href="#DejaVuSans-Bold-54" x="72.021484"/>
     <use xlink:href="#DejaVuSans-Bold-41" x="132.484375"/>
     <use xlink:href="#DejaVuSans-Bold-54" x="202.126953"/>
     <use xlink:href="#DejaVuSans-Bold-45" x="270.339844"/>
    </g>
   </g>
   <g id="text_16">
    <!-- PRIVATE_NGO -->
    <g transform="translate(483.062642 171.229203) rotate(-45) scale(0.1 -0.1)">
     <defs>
      <path id="DejaVuSans-50" d="M 1259 4147 
L 1259 2394 
L 2053 2394 
Q 2494 2394 2734 2622 
Q 2975 2850 2975 3272 
Q 2975 3691 2734 3919 
Q 2494 4147 2053 4147 
L 1259 4147 
z
M 628 4666 
L 2053 4666 
Q 2838 4666 3239 4311 
Q 3641 3956 3641 3272 
Q 3641 2581 3239 2228 
Q 2838 1875 2053 1875 
L 1259 1875 
L 1259 0 
L 628 0 
L 628 4666 
z
" transform="scale(0.015625)"/>
      <path id="DejaVuSans-52" d="M 2841 2188 
Q 3044 2119 3236 1894 
Q 3428 1669 3622 1275 
L 4263 0 
L 3584 0 
L 2988 1197 
Q 2756 1666 2539 1819 
Q 2322 1972 1947 1972 
L 1259 1972 
L 1259 0 
L 628 0 
L 628 4666 
L 2053 4666 
Q 2853 4666 3247 4331 
Q 3641 3997 3641 3322 
Q 3641 2881 3436 2590 
Q 3231 2300 2841 2188 
z
M 1259 4147 
L 1259 2491 
L 2053 2491 
Q 2509 2491 2742 2702 
Q 2975 2913 2975 3322 
Q 2975 3731 2742 3939 
Q 2509 4147 2053 4147 
L 1259 4147 
z
" transform="scale(0.015625)"/>
      <path id="DejaVuSans-49" d="M 628 4666 
L 1259 4666 
L 1259 0 
L 628 0 
L 628 4666 
z
" transform="scale(0.015625)"/>
      <path id="DejaVuSans-56" d="M 1831 0 
L 50 4666 
L 709 4666 
L 2188 738 
L 3669 4666 
L 4325 4666 
L 2547 0 
L 1831 0 
z
" transform="scale(0.015625)"/>
      <path id="DejaVuSans-5f" d="M 3263 -1063 
L 3263 -1509 
L -63 -1509 
L -63 -1063 
L 3263 -1063 
z
" transform="scale(0.015625)"/>
      <path id="DejaVuSans-4e" d="M 628 4666 
L 1478 4666 
L 3547 763 
L 3547 4666 
L 4159 4666 
L 4159 0 
L 3309 0 
L 1241 3903 
L 1241 0 
L 628 0 
L 628 4666 
z
" transform="scale(0.015625)"/>
      <path id="DejaVuSans-47" d="M 3809 666 
L 3809 1919 
L 2778 1919 
L 2778 2438 
L 4434 2438 
L 4434 434 
Q 4069 175 3628 42 
Q 3188 -91 2688 -91 
Q 1594 -91 976 548 
Q 359 1188 359 2328 
Q 359 3472 976 4111 
Q 1594 4750 2688 4750 
Q 3144 4750 3555 4637 
Q 3966 4525 4313 4306 
L 4313 3634 
Q 3963 3931 3569 4081 
Q 3175 4231 2741 4231 
Q 1884 4231 1454 3753 
Q 1025 3275 1025 2328 
Q 1025 1384 1454 906 
Q 1884 428 2741 428 
Q 3075 428 3337 486 
Q 3600 544 3809 666 
z
" transform="scale(0.015625)"/>
      <path id="DejaVuSans-4f" d="M 2522 4238 
Q 1834 4238 1429 3725 
Q 1025 3213 1025 2328 
Q 1025 1447 1429 934 
Q 1834 422 2522 422 
Q 3209 422 3611 934 
Q 4013 1447 4013 2328 
Q 4013 3213 3611 3725 
Q 3209 4238 2522 4238 
z
M 2522 4750 
Q 3503 4750 4090 4092 
Q 4678 3434 4678 2328 
Q 4678 1225 4090 567 
Q 3503 -91 2522 -91 
Q 1538 -91 948 565 
Q 359 1222 359 2328 
Q 359 3434 948 4092 
Q 1538 4750 2522 4750 
z
" transform="scale(0.015625)"/>
     </defs>
     <use xlink:href="#DejaVuSans-50"/>
     <use xlink:href="#DejaVuSans-52" x="60.302734"/>
     <use xlink:href="#DejaVuSans-49" x="129.785156"/>
     <use xlink:href="#DejaVuSans-56" x="159.277344"/>
     <use xlink:href="#DejaVuSans-41" x="221.310547"/>
     <use xlink:href="#DejaVuSans-54" x="281.96875"/>
     <use xlink:href="#DejaVuSans-45" x="343.052734"/>
     <use xlink:href="#DejaVuSans-5f" x="406.236328"/>
     <use xlink:href="#DejaVuSans-4e" x="456.236328"/>
     <use xlink:href="#DejaVuSans-47" x="531.041016"/>
     <use xlink:href="#DejaVuSans-4f" x="608.53125"/>
    </g>
   </g>
   <g id="text_17">
    <!-- STATE -->
    <g transform="translate(493.450014 231.027296) rotate(-45) scale(0.1 -0.1)">
     <use xlink:href="#DejaVuSans-53"/>
     <use xlink:href="#DejaVuSans-54" x="63.476562"/>
     <use xlink:href="#DejaVuSans-41" x="116.810547"/>
     <use xlink:href="#DejaVuSans-54" x="177.46875"/>
     <use xlink:href="#DejaVuSans-45" x="238.552734"/>
    </g>
   </g>
   <g id="text_18">
    <!-- PRIVATE_NGO -->
    <g transform="translate(499.259256 171.229203) rotate(-45) scale(0.1 -0.1)">
     <use xlink:href="#DejaVuSans-50"/>
     <use xlink:href="#DejaVuSans-52" x="60.302734"/>
     <use xlink:href="#DejaVuSans-49" x="129.785156"/>
     <use xlink:href="#DejaVuSans-56" x="159.277344"/>
     <use xlink:href="#DejaVuSans-41" x="221.310547"/>
     <use xlink:href="#DejaVuSans-54" x="281.96875"/>
     <use xlink:href="#DejaVuSans-45" x="343.052734"/>
     <use xlink:href="#DejaVuSans-5f" x="406.236328"/>
     <use xlink:href="#DejaVuSans-4e" x="456.236328"/>
     <use xlink:href="#DejaVuSans-47" x="531.041016"/>
     <use xlink:href="#DejaVuSans-4f" x="608.53125"/>
    </g>
   </g>
   <g id="text_19">
    <!-- STATE -->
    <g transform="translate(558.095897 231.027296) rotate(-45) scale(0.1 -0.1)">
     <use xlink:href="#DejaVuSans-53"/>
     <use xlink:href="#DejaVuSans-54" x="63.476562"/>
     <use xlink:href="#DejaVuSans-41" x="116.810547"/>
     <use xlink:href="#DejaVuSans-54" x="177.46875"/>
     <use xlink:href="#DejaVuSans-45" x="238.552734"/>
    </g>
   </g>
   <g id="text_20">
    <!-- BLM -->
    <g transform="translate(618.101345 171.425867) rotate(-45) scale(0.1 -0.1)">
     <use xlink:href="#DejaVuSans-42"/>
     <use xlink:href="#DejaVuSans-4c" x="68.603516"/>
     <use xlink:href="#DejaVuSans-4d" x="124.316406"/>
    </g>
   </g>
   <g id="text_21">
    <!-- STATE -->
    <g transform="translate(678.831395 231.027296) rotate(-45) scale(0.1 -0.1)">
     <use xlink:href="#DejaVuSans-53"/>
     <use xlink:href="#DejaVuSans-54" x="63.476562"/>
     <use xlink:href="#DejaVuSans-41" x="116.810547"/>
     <use xlink:href="#DejaVuSans-54" x="177.46875"/>
     <use xlink:href="#DejaVuSans-45" x="238.552734"/>
    </g>
   </g>
   <g id="text_22">
    <!-- BLM -->
    <g transform="translate(775.270465 171.425867) rotate(-45) scale(0.1 -0.1)">
     <use xlink:href="#DejaVuSans-42"/>
     <use xlink:href="#DejaVuSans-4c" x="68.603516"/>
     <use xlink:href="#DejaVuSans-4d" x="124.316406"/>
    </g>
   </g>
   <g id="text_23">
    <!-- STATE -->
    <g transform="translate(825.969885 231.027296) rotate(-45) scale(0.1 -0.1)">
     <use xlink:href="#DejaVuSans-53"/>
     <use xlink:href="#DejaVuSans-54" x="63.476562"/>
     <use xlink:href="#DejaVuSans-41" x="116.810547"/>
     <use xlink:href="#DejaVuSans-54" x="177.46875"/>
     <use xlink:href="#DejaVuSans-45" x="238.552734"/>
    </g>
   </g>
   <g id="text_24">
    <!-- BLM -->
    <g transform="translate(859.611066 171.425867) rotate(-45) scale(0.1 -0.1)">
     <use xlink:href="#DejaVuSans-42"/>
     <use xlink:href="#DejaVuSans-4c" x="68.603516"/>
     <use xlink:href="#DejaVuSans-4d" x="124.316406"/>
    </g>
   </g>
   <g id="text_25">
    <!-- STATE -->
    <g transform="translate(883.758569 231.027296) rotate(-45) scale(0.1 -0.1)">
     <use xlink:href="#DejaVuSans-53"/>
     <use xlink:href="#DejaVuSans-54" x="63.476562"/>
     <use xlink:href="#DejaVuSans-41" x="116.810547"/>
     <use xlink:href="#DejaVuSans-54" x="177.46875"/>
     <use xlink:href="#DejaVuSans-45" x="238.552734"/>
    </g>
   </g>
   <g id="text_26">
    <!-- BLM -->
    <g transform="translate(893.414366 171.425867) rotate(-45) scale(0.1 -0.1)">
     <use xlink:href="#DejaVuSans-42"/>
     <use xlink:href="#DejaVuSans-4c" x="68.603516"/>
     <use xlink:href="#DejaVuSans-4d" x="124.316406"/>
    </g>
   </g>
   <g id="text_27">
    <!-- PRIVATE_NGO -->
    <g transform="translate(915.834841 230.830632) rotate(-45) scale(0.1 -0.1)">
     <use xlink:href="#DejaVuSans-50"/>
     <use xlink:href="#DejaVuSans-52" x="60.302734"/>
     <use xlink:href="#DejaVuSans-49" x="129.785156"/>
     <use xlink:href="#DejaVuSans-56" x="159.277344"/>
     <use xlink:href="#DejaVuSans-41" x="221.310547"/>
     <use xlink:href="#DejaVuSans-54" x="281.96875"/>
     <use xlink:href="#DejaVuSans-45" x="343.052734"/>
     <use xlink:href="#DejaVuSans-5f" x="406.236328"/>
     <use xlink:href="#DejaVuSans-4e" x="456.236328"/>
     <use xlink:href="#DejaVuSans-47" x="531.041016"/>
     <use xlink:href="#DejaVuSans-4f" x="608.53125"/>
    </g>
   </g>
   <g id="text_28">
    <!-- STATE -->
    <g transform="translate(947.773957 171.425867) rotate(-45) scale(0.1 -0.1)">
     <use xlink:href="#DejaVuSans-53"/>
     <use xlink:href="#DejaVuSans-54" x="63.476562"/>
     <use xlink:href="#DejaVuSans-41" x="116.810547"/>
     <use xlink:href="#DejaVuSans-54" x="177.46875"/>
     <use xlink:href="#DejaVuSans-45" x="238.552734"/>
    </g>
   </g>
   <g id="text_29">
    <!-- PRIVATE_NGO -->
    <g transform="translate(967.163963 230.830632) rotate(-45) scale(0.1 -0.1)">
     <use xlink:href="#DejaVuSans-50"/>
     <use xlink:href="#DejaVuSans-52" x="60.302734"/>
     <use xlink:href="#DejaVuSans-49" x="129.785156"/>
     <use xlink:href="#DejaVuSans-56" x="159.277344"/>
     <use xlink:href="#DejaVuSans-41" x="221.310547"/>
     <use xlink:href="#DejaVuSans-54" x="281.96875"/>
     <use xlink:href="#DejaVuSans-45" x="343.052734"/>
     <use xlink:href="#DejaVuSans-5f" x="406.236328"/>
     <use xlink:href="#DejaVuSans-4e" x="456.236328"/>
     <use xlink:href="#DejaVuSans-47" x="531.041016"/>
     <use xlink:href="#DejaVuSans-4f" x="608.53125"/>
    </g>
   </g>
   <g id="text_30">
    <!-- STATE -->
    <g transform="translate(1051.648163 171.425867) rotate(-45) scale(0.1 -0.1)">
     <use xlink:href="#DejaVuSans-53"/>
     <use xlink:href="#DejaVuSans-54" x="63.476562"/>
     <use xlink:href="#DejaVuSans-41" x="116.810547"/>
     <use xlink:href="#DejaVuSans-54" x="177.46875"/>
     <use xlink:href="#DejaVuSans-45" x="238.552734"/>
    </g>
   </g>
   <g id="text_31">
    <!-- PRIVATE -->
    <g transform="translate(1135.907663 231.027296) rotate(-45) scale(0.1 -0.1)">
     <use xlink:href="#DejaVuSans-50"/>
     <use xlink:href="#DejaVuSans-52" x="60.302734"/>
     <use xlink:href="#DejaVuSans-49" x="129.785156"/>
     <use xlink:href="#DejaVuSans-56" x="159.277344"/>
     <use xlink:href="#DejaVuSans-41" x="221.310547"/>
     <use xlink:href="#DejaVuSans-54" x="281.96875"/>
     <use xlink:href="#DejaVuSans-45" x="343.052734"/>
    </g>
   </g>
   <g id="text_32">
    <!-- PRIVATE_NGO -->
    <g transform="translate(1159.826439 171.229203) rotate(-45) scale(0.1 -0.1)">
     <use xlink:href="#DejaVuSans-50"/>
     <use xlink:href="#DejaVuSans-52" x="60.302734"/>
     <use xlink:href="#DejaVuSans-49" x="129.785156"/>
     <use xlink:href="#DejaVuSans-56" x="159.277344"/>
     <use xlink:href="#DejaVuSans-41" x="221.310547"/>
     <use xlink:href="#DejaVuSans-54" x="281.96875"/>
     <use xlink:href="#DejaVuSans-45" x="343.052734"/>
     <use xlink:href="#DejaVuSans-5f" x="406.236328"/>
     <use xlink:href="#DejaVuSans-4e" x="456.236328"/>
     <use xlink:href="#DejaVuSans-47" x="531.041016"/>
     <use xlink:href="#DejaVuSans-4f" x="608.53125"/>
    </g>
   </g>
   <g id="text_33">
    <!-- BLM -->
    <g transform="translate(1205.569252 231.027296) rotate(-45) scale(0.1 -0.1)">
     <use xlink:href="#DejaVuSans-42"/>
     <use xlink:href="#DejaVuSans-4c" x="68.603516"/>
     <use xlink:href="#DejaVuSans-4d" x="124.316406"/>
    </g>
   </g>
   <g id="text_34">
    <!-- PRIVATE_NGO -->
    <g transform="translate(1238.574111 171.229203) rotate(-45) scale(0.1 -0.1)">
     <use xlink:href="#DejaVuSans-50"/>
     <use xlink:href="#DejaVuSans-52" x="60.302734"/>
     <use xlink:href="#DejaVuSans-49" x="129.785156"/>
     <use xlink:href="#DejaVuSans-56" x="159.277344"/>
     <use xlink:href="#DejaVuSans-41" x="221.310547"/>
     <use xlink:href="#DejaVuSans-54" x="281.96875"/>
     <use xlink:href="#DejaVuSans-45" x="343.052734"/>
     <use xlink:href="#DejaVuSans-5f" x="406.236328"/>
     <use xlink:href="#DejaVuSans-4e" x="456.236328"/>
     <use xlink:href="#DejaVuSans-47" x="531.041016"/>
     <use xlink:href="#DejaVuSans-4f" x="608.53125"/>
    </g>
   </g>
   <g id="text_35">
    <!-- BLM -->
    <g transform="translate(1256.7009 231.027296) rotate(-45) scale(0.1 -0.1)">
     <use xlink:href="#DejaVuSans-42"/>
     <use xlink:href="#DejaVuSans-4c" x="68.603516"/>
     <use xlink:href="#DejaVuSans-4d" x="124.316406"/>
    </g>
   </g>
   <g id="text_36">
    <!-- PRIVATE_NGO -->
    <g transform="translate(1277.77588 171.229203) rotate(-45) scale(0.1 -0.1)">
     <use xlink:href="#DejaVuSans-50"/>
     <use xlink:href="#DejaVuSans-52" x="60.302734"/>
     <use xlink:href="#DejaVuSans-49" x="129.785156"/>
     <use xlink:href="#DejaVuSans-56" x="159.277344"/>
     <use xlink:href="#DejaVuSans-41" x="221.310547"/>
     <use xlink:href="#DejaVuSans-54" x="281.96875"/>
     <use xlink:href="#DejaVuSans-45" x="343.052734"/>
     <use xlink:href="#DejaVuSans-5f" x="406.236328"/>
     <use xlink:href="#DejaVuSans-4e" x="456.236328"/>
     <use xlink:href="#DejaVuSans-47" x="531.041016"/>
     <use xlink:href="#DejaVuSans-4f" x="608.53125"/>
    </g>
   </g>
   <g id="text_37">
    <!-- PRIVATE -->
    <g transform="translate(1336.686139 231.027296) rotate(-45) scale(0.1 -0.1)">
     <use xlink:href="#DejaVuSans-50"/>
     <use xlink:href="#DejaVuSans-52" x="60.302734"/>
     <use xlink:href="#DejaVuSans-49" x="129.785156"/>
     <use xlink:href="#DejaVuSans-56" x="159.277344"/>
     <use xlink:href="#DejaVuSans-41" x="221.310547"/>
     <use xlink:href="#DejaVuSans-54" x="281.96875"/>
     <use xlink:href="#DejaVuSans-45" x="343.052734"/>
    </g>
   </g>
   <g id="text_38">
    <!-- BLM -->
    <g transform="translate(1396.798823 171.425867) rotate(-45) scale(0.1 -0.1)">
     <use xlink:href="#DejaVuSans-42"/>
     <use xlink:href="#DejaVuSans-4c" x="68.603516"/>
     <use xlink:href="#DejaVuSans-4d" x="124.316406"/>
    </g>
   </g>
   <g id="text_39">
    <!-- PRIVATE -->
    <g transform="translate(1421.636233 231.027296) rotate(-45) scale(0.1 -0.1)">
     <use xlink:href="#DejaVuSans-50"/>
     <use xlink:href="#DejaVuSans-52" x="60.302734"/>
     <use xlink:href="#DejaVuSans-49" x="129.785156"/>
     <use xlink:href="#DejaVuSans-56" x="159.277344"/>
     <use xlink:href="#DejaVuSans-41" x="221.310547"/>
     <use xlink:href="#DejaVuSans-54" x="281.96875"/>
     <use xlink:href="#DejaVuSans-45" x="343.052734"/>
    </g>
   </g>
   <g id="text_40">
    <!-- BLM -->
    <g transform="translate(1457.836791 171.425867) rotate(-45) scale(0.1 -0.1)">
     <use xlink:href="#DejaVuSans-42"/>
     <use xlink:href="#DejaVuSans-4c" x="68.603516"/>
     <use xlink:href="#DejaVuSans-4d" x="124.316406"/>
    </g>
   </g>
   <g id="text_41">
    <!-- STATE -->
    <g transform="translate(1500.547307 231.027296) rotate(-45) scale(0.1 -0.1)">
     <use xlink:href="#DejaVuSans-53"/>
     <use xlink:href="#DejaVuSans-54" x="63.476562"/>
     <use xlink:href="#DejaVuSans-41" x="116.810547"/>
     <use xlink:href="#DejaVuSans-54" x="177.46875"/>
     <use xlink:href="#DejaVuSans-45" x="238.552734"/>
    </g>
   </g>
   <g id="text_42">
    <!-- BLM -->
    <g transform="translate(1530.071037 171.425867) rotate(-45) scale(0.1 -0.1)">
     <use xlink:href="#DejaVuSans-42"/>
     <use xlink:href="#DejaVuSans-4c" x="68.603516"/>
     <use xlink:href="#DejaVuSans-4d" x="124.316406"/>
    </g>
   </g>
   <g id="text_43">
    <!-- PRIVATE -->
    <g transform="translate(1543.762843 231.027296) rotate(-45) scale(0.1 -0.1)">
     <use xlink:href="#DejaVuSans-50"/>
     <use xlink:href="#DejaVuSans-52" x="60.302734"/>
     <use xlink:href="#DejaVuSans-49" x="129.785156"/>
     <use xlink:href="#DejaVuSans-56" x="159.277344"/>
     <use xlink:href="#DejaVuSans-41" x="221.310547"/>
     <use xlink:href="#DejaVuSans-54" x="281.96875"/>
     <use xlink:href="#DejaVuSans-45" x="343.052734"/>
    </g>
   </g>
   <g id="text_44">
    <!-- BLM -->
    <g transform="translate(1552.122066 171.425867) rotate(-45) scale(0.1 -0.1)">
     <use xlink:href="#DejaVuSans-42"/>
     <use xlink:href="#DejaVuSans-4c" x="68.603516"/>
     <use xlink:href="#DejaVuSans-4d" x="124.316406"/>
    </g>
   </g>
   <g id="text_45">
    <!-- PRIVATE -->
    <g transform="translate(1563.052752 231.027296) rotate(-45) scale(0.1 -0.1)">
     <use xlink:href="#DejaVuSans-50"/>
     <use xlink:href="#DejaVuSans-52" x="60.302734"/>
     <use xlink:href="#DejaVuSans-49" x="129.785156"/>
     <use xlink:href="#DejaVuSans-56" x="159.277344"/>
     <use xlink:href="#DejaVuSans-41" x="221.310547"/>
     <use xlink:href="#DejaVuSans-54" x="281.96875"/>
     <use xlink:href="#DejaVuSans-45" x="343.052734"/>
    </g>
   </g>
   <g id="text_46">
    <!-- BLM -->
    <g transform="translate(1589.869265 171.425867) rotate(-45) scale(0.1 -0.1)">
     <use xlink:href="#DejaVuSans-42"/>
     <use xlink:href="#DejaVuSans-4c" x="68.603516"/>
     <use xlink:href="#DejaVuSans-4d" x="124.316406"/>
    </g>
   </g>
   <g id="text_47">
    <!-- PRIVATE -->
    <g transform="translate(1622.670704 231.027296) rotate(-45) scale(0.1 -0.1)">
     <use xlink:href="#DejaVuSans-50"/>
     <use xlink:href="#DejaVuSans-52" x="60.302734"/>
     <use xlink:href="#DejaVuSans-49" x="129.785156"/>
     <use xlink:href="#DejaVuSans-56" x="159.277344"/>
     <use xlink:href="#DejaVuSans-41" x="221.310547"/>
     <use xlink:href="#DejaVuSans-54" x="281.96875"/>
     <use xlink:href="#DejaVuSans-45" x="343.052734"/>
    </g>
   </g>
   <g id="text_48">
    <!-- BLM -->
    <g transform="translate(1647.09388 171.425867) rotate(-45) scale(0.1 -0.1)">
     <use xlink:href="#DejaVuSans-42"/>
     <use xlink:href="#DejaVuSans-4c" x="68.603516"/>
     <use xlink:href="#DejaVuSans-4d" x="124.316406"/>
    </g>
   </g>
   <g id="text_49">
    <!-- PRIVATE -->
    <g transform="translate(1686.202772 231.027296) rotate(-45) scale(0.1 -0.1)">
     <use xlink:href="#DejaVuSans-50"/>
     <use xlink:href="#DejaVuSans-52" x="60.302734"/>
     <use xlink:href="#DejaVuSans-49" x="129.785156"/>
     <use xlink:href="#DejaVuSans-56" x="159.277344"/>
     <use xlink:href="#DejaVuSans-41" x="221.310547"/>
     <use xlink:href="#DejaVuSans-54" x="281.96875"/>
     <use xlink:href="#DejaVuSans-45" x="343.052734"/>
    </g>
   </g>
   <g id="text_50">
    <!-- STATE -->
    <g transform="translate(1736.786192 171.425867) rotate(-45) scale(0.1 -0.1)">
     <use xlink:href="#DejaVuSans-53"/>
     <use xlink:href="#DejaVuSans-54" x="63.476562"/>
     <use xlink:href="#DejaVuSans-41" x="116.810547"/>
     <use xlink:href="#DejaVuSans-54" x="177.46875"/>
     <use xlink:href="#DejaVuSans-45" x="238.552734"/>
    </g>
   </g>
   <g id="text_51">
    <!-- PRIVATE -->
    <g transform="translate(1814.362091 231.027296) rotate(-45) scale(0.1 -0.1)">
     <use xlink:href="#DejaVuSans-50"/>
     <use xlink:href="#DejaVuSans-52" x="60.302734"/>
     <use xlink:href="#DejaVuSans-49" x="129.785156"/>
     <use xlink:href="#DejaVuSans-56" x="159.277344"/>
     <use xlink:href="#DejaVuSans-41" x="221.310547"/>
     <use xlink:href="#DejaVuSans-54" x="281.96875"/>
     <use xlink:href="#DejaVuSans-45" x="343.052734"/>
    </g>
   </g>
   <g id="text_52">
    <!-- BLM -->
    <g transform="translate(1893.300179 171.425867) rotate(-45) scale(0.1 -0.1)">
     <use xlink:href="#DejaVuSans-42"/>
     <use xlink:href="#DejaVuSans-4c" x="68.603516"/>
     <use xlink:href="#DejaVuSans-4d" x="124.316406"/>
    </g>
   </g>
   <g id="text_53">
    <!-- STATE -->
    <g transform="translate(1959.272136 231.027296) rotate(-45) scale(0.1 -0.1)">
     <use xlink:href="#DejaVuSans-53"/>
     <use xlink:href="#DejaVuSans-54" x="63.476562"/>
     <use xlink:href="#DejaVuSans-41" x="116.810547"/>
     <use xlink:href="#DejaVuSans-54" x="177.46875"/>
     <use xlink:href="#DejaVuSans-45" x="238.552734"/>
    </g>
   </g>
   <g id="text_54">
    <!-- BLM -->
    <g transform="translate(2001.956964 171.425867) rotate(-45) scale(0.1 -0.1)">
     <use xlink:href="#DejaVuSans-42"/>
     <use xlink:href="#DejaVuSans-4c" x="68.603516"/>
     <use xlink:href="#DejaVuSans-4d" x="124.316406"/>
    </g>
   </g>
   <g id="text_55">
    <!-- PRIVATE -->
    <g transform="translate(2032.799025 231.027296) rotate(-45) scale(0.1 -0.1)">
     <use xlink:href="#DejaVuSans-50"/>
     <use xlink:href="#DejaVuSans-52" x="60.302734"/>
     <use xlink:href="#DejaVuSans-49" x="129.785156"/>
     <use xlink:href="#DejaVuSans-56" x="159.277344"/>
     <use xlink:href="#DejaVuSans-41" x="221.310547"/>
     <use xlink:href="#DejaVuSans-54" x="281.96875"/>
     <use xlink:href="#DejaVuSans-45" x="343.052734"/>
    </g>
   </g>
   <g id="text_56">
    <!-- BLM -->
    <g transform="translate(2072.739649 171.425867) rotate(-45) scale(0.1 -0.1)">
     <use xlink:href="#DejaVuSans-42"/>
     <use xlink:href="#DejaVuSans-4c" x="68.603516"/>
     <use xlink:href="#DejaVuSans-4d" x="124.316406"/>
    </g>
   </g>
   <g id="text_57">
    <!-- PRIVATE -->
    <g transform="translate(2112.930745 231.027296) rotate(-45) scale(0.1 -0.1)">
     <use xlink:href="#DejaVuSans-50"/>
     <use xlink:href="#DejaVuSans-52" x="60.302734"/>
     <use xlink:href="#DejaVuSans-49" x="129.785156"/>
     <use xlink:href="#DejaVuSans-56" x="159.277344"/>
     <use xlink:href="#DejaVuSans-41" x="221.310547"/>
     <use xlink:href="#DejaVuSans-54" x="281.96875"/>
     <use xlink:href="#DejaVuSans-45" x="343.052734"/>
    </g>
   </g>
   <g id="text_58">
    <!-- BLM -->
    <g transform="translate(2145.489846 171.425867) rotate(-45) scale(0.1 -0.1)">
     <use xlink:href="#DejaVuSans-42"/>
     <use xlink:href="#DejaVuSans-4c" x="68.603516"/>
     <use xlink:href="#DejaVuSans-4d" x="124.316406"/>
    </g>
   </g>
   <g id="text_59">
    <!-- PRIVATE -->
    <g transform="translate(2164.212774 231.027296) rotate(-45) scale(0.1 -0.1)">
     <use xlink:href="#DejaVuSans-50"/>
     <use xlink:href="#DejaVuSans-52" x="60.302734"/>
     <use xlink:href="#DejaVuSans-49" x="129.785156"/>
     <use xlink:href="#DejaVuSans-56" x="159.277344"/>
     <use xlink:href="#DejaVuSans-41" x="221.310547"/>
     <use xlink:href="#DejaVuSans-54" x="281.96875"/>
     <use xlink:href="#DejaVuSans-45" x="343.052734"/>
    </g>
   </g>
   <g id="text_60">
    <!-- BLM -->
    <g transform="translate(2219.115843 171.425867) rotate(-45) scale(0.1 -0.1)">
     <use xlink:href="#DejaVuSans-42"/>
     <use xlink:href="#DejaVuSans-4c" x="68.603516"/>
     <use xlink:href="#DejaVuSans-4d" x="124.316406"/>
    </g>
   </g>
   <g id="text_61">
    <!-- PRIVATE -->
    <g transform="translate(2294.976834 231.027296) rotate(-45) scale(0.1 -0.1)">
     <use xlink:href="#DejaVuSans-50"/>
     <use xlink:href="#DejaVuSans-52" x="60.302734"/>
     <use xlink:href="#DejaVuSans-49" x="129.785156"/>
     <use xlink:href="#DejaVuSans-56" x="159.277344"/>
     <use xlink:href="#DejaVuSans-41" x="221.310547"/>
     <use xlink:href="#DejaVuSans-54" x="281.96875"/>
     <use xlink:href="#DejaVuSans-45" x="343.052734"/>
    </g>
   </g>
   <g id="text_62">
    <!-- BLM -->
    <g transform="translate(2359.895122 171.425867) rotate(-45) scale(0.1 -0.1)">
     <use xlink:href="#DejaVuSans-42"/>
     <use xlink:href="#DejaVuSans-4c" x="68.603516"/>
     <use xlink:href="#DejaVuSans-4d" x="124.316406"/>
    </g>
   </g>
   <g id="text_63">
    <!-- PRIVATE -->
    <g transform="translate(2406.178254 231.027296) rotate(-45) scale(0.1 -0.1)">
     <use xlink:href="#DejaVuSans-50"/>
     <use xlink:href="#DejaVuSans-52" x="60.302734"/>
     <use xlink:href="#DejaVuSans-49" x="129.785156"/>
     <use xlink:href="#DejaVuSans-56" x="159.277344"/>
     <use xlink:href="#DejaVuSans-41" x="221.310547"/>
     <use xlink:href="#DejaVuSans-54" x="281.96875"/>
     <use xlink:href="#DejaVuSans-45" x="343.052734"/>
    </g>
   </g>
   <g id="text_64">
    <!-- BLM -->
    <g transform="translate(2810.389539 404.679821) scale(0.12 -0.12)">
     <defs>
      <path id="DejaVuSans-Bold-42" d="M 2456 2859 
Q 2741 2859 2887 2984 
Q 3034 3109 3034 3353 
Q 3034 3594 2887 3720 
Q 2741 3847 2456 3847 
L 1791 3847 
L 1791 2859 
L 2456 2859 
z
M 2497 819 
Q 2859 819 3042 972 
Q 3225 1125 3225 1434 
Q 3225 1738 3044 1889 
Q 2863 2041 2497 2041 
L 1791 2041 
L 1791 819 
L 2497 819 
z
M 3616 2497 
Q 4003 2384 4215 2081 
Q 4428 1778 4428 1338 
Q 4428 663 3972 331 
Q 3516 0 2584 0 
L 588 0 
L 588 4666 
L 2394 4666 
Q 3366 4666 3802 4372 
Q 4238 4078 4238 3431 
Q 4238 3091 4078 2852 
Q 3919 2613 3616 2497 
z
" transform="scale(0.015625)"/>
      <path id="DejaVuSans-Bold-4c" d="M 588 4666 
L 1791 4666 
L 1791 909 
L 3903 909 
L 3903 0 
L 588 0 
L 588 4666 
z
" transform="scale(0.015625)"/>
      <path id="DejaVuSans-Bold-4d" d="M 588 4666 
L 2119 4666 
L 3181 2169 
L 4250 4666 
L 5778 4666 
L 5778 0 
L 4641 0 
L 4641 3413 
L 3566 897 
L 2803 897 
L 1728 3413 
L 1728 0 
L 588 0 
L 588 4666 
z
" transform="scale(0.015625)"/>
     </defs>
     <use xlink:href="#DejaVuSans-Bold-42"/>
     <use xlink:href="#DejaVuSans-Bold-4c" x="76.220703"/>
     <use xlink:href="#DejaVuSans-Bold-4d" x="139.941406"/>
    </g>
   </g>
   <g id="text_65">
    <!-- STATE -->
    <g transform="translate(3339.64956 171.425867) rotate(-45) scale(0.1 -0.1)">
     <use xlink:href="#DejaVuSans-53"/>
     <use xlink:href="#DejaVuSans-54" x="63.476562"/>
     <use xlink:href="#DejaVuSans-41" x="116.810547"/>
     <use xlink:href="#DejaVuSans-54" x="177.46875"/>
     <use xlink:href="#DejaVuSans-45" x="238.552734"/>
    </g>
   </g>
   <g id="text_66">
    <!-- Ownership Ribbon (gps01_fa21) -->
    <g transform="translate(1591.800543 23.76) scale(0.16 -0.16)">
     <defs>
      <path id="DejaVuSans-77" d="M 269 3500 
L 844 3500 
L 1563 769 
L 2278 3500 
L 2956 3500 
L 3675 769 
L 4391 3500 
L 4966 3500 
L 4050 0 
L 3372 0 
L 2619 2869 
L 1863 0 
L 1184 0 
L 269 3500 
z
" transform="scale(0.015625)"/>
      <path id="DejaVuSans-72" d="M 2631 2963 
Q 2534 3019 2420 3045 
Q 2306 3072 2169 3072 
Q 1681 3072 1420 2755 
Q 1159 2438 1159 1844 
L 1159 0 
L 581 0 
L 581 3500 
L 1159 3500 
L 1159 2956 
Q 1341 3275 1631 3429 
Q 1922 3584 2338 3584 
Q 2397 3584 2469 3576 
Q 2541 3569 2628 3553 
L 2631 2963 
z
" transform="scale(0.015625)"/>
      <path id="DejaVuSans-68" d="M 3513 2113 
L 3513 0 
L 2938 0 
L 2938 2094 
Q 2938 2591 2744 2837 
Q 2550 3084 2163 3084 
Q 1697 3084 1428 2787 
Q 1159 2491 1159 1978 
L 1159 0 
L 581 0 
L 581 4863 
L 1159 4863 
L 1159 2956 
Q 1366 3272 1645 3428 
Q 1925 3584 2291 3584 
Q 2894 3584 3203 3211 
Q 3513 2838 3513 2113 
z
" transform="scale(0.015625)"/>
      <path id="DejaVuSans-70" d="M 1159 525 
L 1159 -1331 
L 581 -1331 
L 581 3500 
L 1159 3500 
L 1159 2969 
Q 1341 3281 1617 3432 
Q 1894 3584 2278 3584 
Q 2916 3584 3314 3078 
Q 3713 2572 3713 1747 
Q 3713 922 3314 415 
Q 2916 -91 2278 -91 
Q 1894 -91 1617 61 
Q 1341 213 1159 525 
z
M 3116 1747 
Q 3116 2381 2855 2742 
Q 2594 3103 2138 3103 
Q 1681 3103 1420 2742 
Q 1159 2381 1159 1747 
Q 1159 1113 1420 752 
Q 1681 391 2138 391 
Q 2594 391 2855 752 
Q 3116 1113 3116 1747 
z
" transform="scale(0.015625)"/>
      <path id="DejaVuSans-62" d="M 3116 1747 
Q 3116 2381 2855 2742 
Q 2594 3103 2138 3103 
Q 1681 3103 1420 2742 
Q 1159 2381 1159 1747 
Q 1159 1113 1420 752 
Q 1681 391 2138 391 
Q 2594 391 2855 752 
Q 3116 1113 3116 1747 
z
M 1159 2969 
Q 1341 3281 1617 3432 
Q 1894 3584 2278 3584 
Q 2916 3584 3314 3078 
Q 3713 2572 3713 1747 
Q 3713 922 3314 415 
Q 2916 -91 2278 -91 
Q 1894 -91 1617 61 
Q 1341 213 1159 525 
L 1159 0 
L 581 0 
L 581 4863 
L 1159 4863 
L 1159 2969 
z
" transform="scale(0.015625)"/>
      <path id="DejaVuSans-6f" d="M 1959 3097 
Q 1497 3097 1228 2736 
Q 959 2375 959 1747 
Q 959 1119 1226 758 
Q 1494 397 1959 397 
Q 2419 397 2687 759 
Q 2956 1122 2956 1747 
Q 2956 2369 2687 2733 
Q 2419 3097 1959 3097 
z
M 1959 3584 
Q 2709 3584 3137 3096 
Q 3566 2609 3566 1747 
Q 3566 888 3137 398 
Q 2709 -91 1959 -91 
Q 1206 -91 779 398 
Q 353 888 353 1747 
Q 353 2609 779 3096 
Q 1206 3584 1959 3584 
z
" transform="scale(0.015625)"/>
      <path id="DejaVuSans-67" d="M 2906 1791 
Q 2906 2416 2648 2759 
Q 2391 3103 1925 3103 
Q 1463 3103 1205 2759 
Q 947 2416 947 1791 
Q 947 1169 1205 825 
Q 1463 481 1925 481 
Q 2391 481 2648 825 
Q 2906 1169 2906 1791 
z
M 3481 434 
Q 3481 -459 3084 -895 
Q 2688 -1331 1869 -1331 
Q 1566 -1331 1297 -1286 
Q 1028 -1241 775 -1147 
L 775 -588 
Q 1028 -725 1275 -790 
Q 1522 -856 1778 -856 
Q 2344 -856 2625 -561 
Q 2906 -266 2906 331 
L 2906 616 
Q 2728 306 2450 153 
Q 2172 0 1784 0 
Q 1141 0 747 490 
Q 353 981 353 1791 
Q 353 2603 747 3093 
Q 1141 3584 1784 3584 
Q 2172 3584 2450 3431 
Q 2728 3278 2906 2969 
L 2906 3500 
L 3481 3500 
L 3481 434 
z
" transform="scale(0.015625)"/>
      <path id="DejaVuSans-66" d="M 2375 4863 
L 2375 4384 
L 1825 4384 
Q 1516 4384 1395 4259 
Q 1275 4134 1275 3809 
L 1275 3500 
L 2222 3500 
L 2222 3053 
L 1275 3053 
L 1275 0 
L 697 0 
L 697 3053 
L 147 3053 
L 147 3500 
L 697 3500 
L 697 3744 
Q 697 4328 969 4595 
Q 1241 4863 1831 4863 
L 2375 4863 
z
" transform="scale(0.015625)"/>
     </defs>
     <use xlink:href="#DejaVuSans-4f"/>
     <use xlink:href="#DejaVuSans-77" x="78.710938"/>
     <use xlink:href="#DejaVuSans-6e" x="160.498047"/>
     <use xlink:href="#DejaVuSans-65" x="223.876953"/>
     <use xlink:href="#DejaVuSans-72" x="285.400391"/>
     <use xlink:href="#DejaVuSans-73" x="326.513672"/>
     <use xlink:href="#DejaVuSans-68" x="378.613281"/>
     <use xlink:href="#DejaVuSans-69" x="441.992188"/>
     <use xlink:href="#DejaVuSans-70" x="469.775391"/>
     <use xlink:href="#DejaVuSans-20" x="533.251953"/>
     <use xlink:href="#DejaVuSans-52" x="565.039062"/>
     <use xlink:href="#DejaVuSans-69" x="634.521484"/>
     <use xlink:href="#DejaVuSans-62" x="662.304688"/>
     <use xlink:href="#DejaVuSans-62" x="725.78125"/>
     <use xlink:href="#DejaVuSans-6f" x="789.257812"/>
     <use xlink:href="#DejaVuSans-6e" x="850.439453"/>
     <use xlink:href="#DejaVuSans-20" x="913.818359"/>
     <use xlink:href="#DejaVuSans-28" x="945.605469"/>
     <use xlink:href="#DejaVuSans-67" x="984.619141"/>
     <use xlink:href="#DejaVuSans-70" x="1048.095703"/>
     <use xlink:href="#DejaVuSans-73" x="1111.572266"/>
     <use xlink:href="#DejaVuSans-30" x="1163.671875"/>
     <use xlink:href="#DejaVuSans-31" x="1227.294922"/>
     <use xlink:href="#DejaVuSans-5f" x="1290.917969"/>
     <use xlink:href="#DejaVuSans-66" x="1340.917969"/>
     <use xlink:href="#DejaVuSans-61" x="1376.123047"/>
     <use xlink:href="#DejaVuSans-32" x="1437.402344"/>
     <use xlink:href="#DejaVuSans-31" x="1501.025391"/>
     <use xlink:href="#DejaVuSans-29" x="1564.648438"/>
    </g>
   </g>
  </g>
 </g>
 <defs>
  <clipPath id="p71367e8ccc">
   <rect x="14.3" y="43.76" width="3411.591086" height="556.28"/>
  </clipPath>
 </defs>
</svg>
